<svg width="300" height="300" viewBox="0 0 300 300" fill="none" xmlns="http://www.w3.org/2000/svg">
<path d="M82.86 70.746C69.732 83.388 61.014 100.05 55.434 117.396C51.642 129.174 49.212 141.954 52.524 153.876C55.836 165.798 66.258 176.46 78.636 176.58C88.098 176.676 96.774 170.754 102.54 163.254C108.306 155.754 111.702 146.754 115.32 138.018C118.938 129.282 122.994 120.444 129.72 113.79C136.446 107.136 145.656 103.044 154.98 100.8C161.526 99.228 169.122 98.682 174.312 102.972C180.708 108.252 180.246 118.626 175.962 125.73C169.524 136.398 157.188 141.648 147.192 149.088C128.934 162.678 117.828 185.37 118.296 208.128C118.44 215.274 120.156 223.218 126.096 227.22C132.282 231.42 140.94 229.62 147.096 225.366C153.252 221.112 157.602 214.86 162.6 209.316C176.43 193.992 195.054 184.026 211.722 171.852C228.39 159.678 244.122 143.586 247.416 123.21C250.182 106.068 243.312 88.182 231.414 75.534C219.516 62.886 203.076 55.134 186.102 51.492C152.856 44.334 108.636 45.924 82.86 70.746Z" fill="#0A3CB1"/>
<path opacity="0.9" d="M82.86 70.746C69.732 83.388 61.014 100.05 55.434 117.396C51.642 129.174 49.212 141.954 52.524 153.876C55.836 165.798 66.258 176.46 78.636 176.58C88.098 176.676 96.774 170.754 102.54 163.254C108.306 155.754 111.702 146.754 115.32 138.018C118.938 129.282 122.994 120.444 129.72 113.79C136.446 107.136 145.656 103.044 154.98 100.8C161.526 99.228 169.122 98.682 174.312 102.972C180.708 108.252 180.246 118.626 175.962 125.73C169.524 136.398 157.188 141.648 147.192 149.088C128.934 162.678 117.828 185.37 118.296 208.128C118.44 215.274 120.156 223.218 126.096 227.22C132.282 231.42 140.94 229.62 147.096 225.366C153.252 221.112 157.602 214.86 162.6 209.316C176.43 193.992 195.054 184.026 211.722 171.852C228.39 159.678 244.122 143.586 247.416 123.21C250.182 106.068 243.312 88.182 231.414 75.534C219.516 62.886 203.076 55.134 186.102 51.492C152.856 44.334 108.636 45.924 82.86 70.746Z" fill="white"/>
<path d="M258.21 217.746L261.258 169.23C261.526 164.963 260.917 160.687 259.468 156.664C258.02 152.642 255.763 148.959 252.836 145.843C249.909 142.726 246.375 140.243 242.451 138.545C238.527 136.848 234.297 135.972 230.022 135.972C222.028 135.973 214.337 139.033 208.528 144.525C202.718 150.016 199.231 157.523 198.78 165.504L195.6 222.168H253.5C254.7 222.167 255.855 221.71 256.73 220.889C257.604 220.067 258.134 218.944 258.21 217.746Z" fill="#0A3CB1"/>
<path opacity="0.1" d="M258.318 216L261.258 169.242C261.526 164.975 260.917 160.699 259.468 156.676C258.02 152.654 255.763 148.971 252.836 145.855C249.909 142.738 246.375 140.255 242.451 138.557C238.527 136.86 234.297 135.984 230.022 135.984C222.028 135.985 214.337 139.045 208.528 144.537C202.718 150.028 199.231 157.535 198.78 165.516L195.6 222.168H251.754C253.426 222.162 255.033 221.523 256.252 220.378C257.47 219.233 258.209 217.668 258.318 216Z" fill="#102962"/>
<path d="M248.814 222.168L252.138 169.23C252.405 164.963 251.796 160.687 250.347 156.665C248.898 152.643 246.64 148.961 243.714 145.845C240.787 142.728 237.253 140.245 233.33 138.547C229.407 136.849 225.177 135.973 220.902 135.972C212.908 135.972 205.216 139.031 199.406 144.523C193.597 150.015 190.109 157.522 189.66 165.504L186.462 222.168H248.814Z" fill="#0A3CB1"/>
<path d="M249.81 231.282H250.608C250.823 231.27 251.027 231.182 251.183 231.034C251.339 230.886 251.438 230.686 251.46 230.472L252.66 222.174H247.8L249 230.472C249.022 230.679 249.115 230.873 249.262 231.02C249.409 231.167 249.603 231.26 249.81 231.282Z" fill="#0A3CB1"/>
<path opacity="0.7" d="M249.81 231.282H250.608C250.823 231.27 251.027 231.182 251.183 231.034C251.339 230.886 251.438 230.686 251.46 230.472L252.66 222.174H247.8L249 230.472C249.022 230.679 249.115 230.873 249.262 231.02C249.409 231.167 249.603 231.26 249.81 231.282Z" fill="white"/>
<path d="M171.42 231.282H172.14C172.344 231.261 172.534 231.168 172.676 231.019C172.818 230.871 172.902 230.677 172.914 230.472L174 222.174H169.584L170.658 230.472C170.669 230.675 170.752 230.868 170.891 231.016C171.031 231.164 171.218 231.258 171.42 231.282Z" fill="#0A3CB1"/>
<path opacity="0.5" d="M171.42 231.282H172.14C172.344 231.261 172.534 231.168 172.676 231.019C172.818 230.871 172.902 230.677 172.914 230.472L174 222.174H169.584L170.658 230.472C170.669 230.675 170.752 230.868 170.891 231.016C171.031 231.164 171.218 231.258 171.42 231.282Z" fill="white"/>
<path d="M193.986 231.282H194.712C194.916 231.261 195.106 231.168 195.248 231.019C195.39 230.871 195.474 230.677 195.486 230.472L196.554 222.174H192.144L193.2 230.472C193.212 230.679 193.298 230.874 193.442 231.023C193.587 231.172 193.78 231.264 193.986 231.282Z" fill="#0A3CB1"/>
<path opacity="0.7" d="M193.986 231.282H194.712C194.916 231.261 195.106 231.168 195.248 231.019C195.39 230.871 195.474 230.677 195.486 230.472L196.554 222.174H192.144L193.2 230.472C193.212 230.679 193.298 230.874 193.442 231.023C193.587 231.172 193.78 231.264 193.986 231.282Z" fill="white"/>
<path d="M225.51 231.282H226.308C226.523 231.269 226.727 231.181 226.884 231.033C227.041 230.885 227.141 230.686 227.166 230.472L228.366 222.174H223.5L224.7 230.472C224.721 230.68 224.813 230.874 224.961 231.021C225.108 231.169 225.302 231.261 225.51 231.282Z" fill="#0A3CB1"/>
<path opacity="0.5" d="M225.51 231.282H226.308C226.523 231.269 226.727 231.181 226.884 231.033C227.041 230.885 227.141 230.686 227.166 230.472L228.366 222.174H223.5L224.7 230.472C224.721 230.68 224.813 230.874 224.961 231.021C225.108 231.169 225.302 231.261 225.51 231.282Z" fill="white"/>
<path d="M199.092 202.2H177.756L176.346 181.632L176.04 177.216L175.902 175.182C175.864 174.648 175.793 174.117 175.692 173.592C175.692 173.478 175.644 173.352 175.62 173.238C175.607 173.152 175.585 173.067 175.554 172.986C174.979 170.89 173.859 168.983 172.308 167.46C170.518 165.692 168.152 164.627 165.642 164.46H185.712C185.928 164.46 186.15 164.46 186.372 164.46C189.093 164.472 191.701 165.549 193.638 167.46C195.191 168.983 196.313 170.889 196.89 172.986C196.921 173.067 196.943 173.152 196.956 173.238C197.097 173.878 197.191 174.528 197.238 175.182L197.376 177.216L199.092 202.2Z" fill="#0A3CB1"/>
<path opacity="0.1" d="M199.092 202.2H177.756L176.346 181.632L176.04 177.216L175.902 175.182C175.864 174.648 175.793 174.117 175.692 173.592C175.692 173.478 175.644 173.352 175.62 173.238C175.607 173.152 175.585 173.067 175.554 172.986C174.979 170.89 173.859 168.983 172.308 167.46C170.518 165.692 168.152 164.627 165.642 164.46H185.712C185.928 164.46 186.15 164.46 186.372 164.46C189.093 164.472 191.701 165.549 193.638 167.46C195.191 168.983 196.313 170.889 196.89 172.986C196.921 173.067 196.943 173.152 196.956 173.238C197.097 173.878 197.191 174.528 197.238 175.182L197.376 177.216L199.092 202.2Z" fill="#102962"/>
<g opacity="0.1">
<path d="M216 191.22H224.568C226.656 191.22 228.342 192.54 228.342 194.166V199.23C228.342 200.862 226.656 202.176 224.568 202.176H216V191.22Z" fill="#102962"/>
</g>
<path d="M181.014 202.176H218.754C220.55 202.176 222.006 200.72 222.006 198.924V194.466C222.006 192.67 220.55 191.214 218.754 191.214H181.014C179.218 191.214 177.762 192.67 177.762 194.466V198.924C177.762 200.72 179.218 202.176 181.014 202.176Z" fill="#0A3CB1"/>
<path d="M270 176.562C270.005 179.431 268.995 182.209 267.15 184.405C265.304 186.601 262.741 188.074 259.914 188.562L257.724 217.8C257.532 220.284 255.726 222.186 253.566 222.186H230.034C232.194 222.186 233.994 220.284 234.186 217.8L235.386 202.2L236.4 188.544C238.249 188.226 240 187.483 241.513 186.373C243.026 185.263 244.26 183.817 245.118 182.148C245.236 181.936 245.342 181.718 245.436 181.494C246.129 179.943 246.485 178.261 246.48 176.562C246.479 175.73 246.394 174.9 246.228 174.084C246.162 173.76 246.078 173.436 245.988 173.118C245.561 171.689 244.878 170.349 243.972 169.164C242.836 167.685 241.377 166.487 239.705 165.661C238.033 164.835 236.195 164.404 234.33 164.4H257.862C259.748 164.393 261.609 164.833 263.292 165.684C264.937 166.503 266.374 167.687 267.492 169.146C269.125 171.273 270.007 173.881 270 176.562Z" fill="#0A3CB1"/>
<path opacity="0.1" d="M270 176.562C270.005 179.431 268.995 182.209 267.15 184.405C265.304 186.601 262.741 188.074 259.914 188.562L257.724 217.8C257.532 220.284 255.726 222.186 253.566 222.186H230.034C232.194 222.186 233.994 220.284 234.186 217.8L235.386 202.2L236.4 188.544C238.249 188.226 240 187.483 241.513 186.373C243.026 185.263 244.26 183.817 245.118 182.148C245.236 181.936 245.342 181.718 245.436 181.494C246.129 179.943 246.485 178.261 246.48 176.562C246.479 175.73 246.394 174.9 246.228 174.084C246.162 173.76 246.078 173.436 245.988 173.118C245.561 171.689 244.878 170.349 243.972 169.164C242.836 167.685 241.377 166.487 239.705 165.661C238.033 164.835 236.195 164.404 234.33 164.4H257.862C259.748 164.393 261.609 164.833 263.292 165.684C264.937 166.503 266.374 167.687 267.492 169.146C269.125 171.273 270.007 173.881 270 176.562Z" fill="#102962"/>
<path d="M246.486 176.568C246.486 182.568 242.532 187.566 237.342 188.568L235.338 217.8C235.164 220.284 233.538 222.192 231.57 222.192H168.726C166.77 222.192 165.126 220.284 164.958 217.8L162.948 188.514C157.86 187.446 154.014 182.514 154.014 176.586C154.002 174.097 154.708 171.658 156.048 169.56C157.062 167.961 158.458 166.639 160.11 165.714C161.614 164.868 163.31 164.424 165.036 164.424C167.758 164.44 170.366 165.516 172.308 167.424C173.859 168.945 174.979 170.849 175.554 172.944C175.585 173.029 175.607 173.118 175.62 173.208C175.762 173.846 175.856 174.494 175.902 175.146L176.046 177.18L177.756 202.2H222.54L224.394 175.2C224.658 171.384 226.518 168.204 229.098 166.698C230.729 165.393 232.72 164.621 234.804 164.484C235.023 164.462 235.244 164.452 235.464 164.454C237.139 164.445 238.79 164.857 240.264 165.654C240.31 165.674 240.354 165.698 240.396 165.726C241.918 166.571 243.223 167.756 244.212 169.188C245.701 171.36 246.494 173.934 246.486 176.568Z" fill="#0A3CB1"/>
<path opacity="0.1" d="M221.502 222.174H168.702C166.746 222.174 165.102 220.266 164.934 217.782L162.924 188.496C157.836 187.428 153.99 182.496 153.99 176.568C153.978 174.079 154.684 171.64 156.024 169.542C157.038 167.943 158.434 166.621 160.086 165.696C161.59 164.85 163.287 164.406 165.012 164.406C167.734 164.422 170.342 165.498 172.284 167.406C173.835 168.927 174.955 170.831 175.53 172.926C175.561 173.011 175.583 173.1 175.596 173.19C175.738 173.828 175.832 174.476 175.878 175.128L176.022 177.162L177.756 202.2H222.54L221.502 222.174Z" fill="white"/>
<path d="M214.656 139.032C213.612 139.632 212.658 140.13 211.656 140.64C210.654 141.15 209.67 141.618 208.656 142.086C206.64 143.004 204.6 143.886 202.5 144.648C200.383 145.435 198.229 146.116 196.044 146.688C193.772 147.299 191.451 147.714 189.108 147.93L188.61 147.978H188.376C186.258 147.732 184.38 147.378 182.496 146.958C180.612 146.538 178.746 146.124 176.898 145.65C175.05 145.176 173.214 144.69 171.378 144.162C169.542 143.634 167.724 143.088 165.906 142.47L166.74 138.306C170.514 138.546 174.282 138.906 178.014 139.296L183.588 139.854C185.424 140.034 187.302 140.19 188.946 140.25H188.22C190.103 139.914 191.96 139.445 193.776 138.846C195.654 138.246 197.532 137.562 199.41 136.758C201.288 135.954 203.148 135.126 204.996 134.244C205.944 133.812 206.862 133.356 207.762 132.906C208.662 132.456 209.622 131.976 210.444 131.55L214.656 139.032Z" fill="#263238"/>
<path opacity="0.1" d="M214.656 139.032C213.612 139.632 212.658 140.13 211.656 140.64C210.654 141.15 209.67 141.618 208.656 142.086C206.64 143.004 204.6 143.886 202.5 144.648C200.383 145.435 198.229 146.116 196.044 146.688C193.772 147.299 191.451 147.714 189.108 147.93L188.61 147.978H188.376C186.258 147.732 184.38 147.378 182.496 146.958C180.612 146.538 178.746 146.124 176.898 145.65C175.05 145.176 173.214 144.69 171.378 144.162C169.542 143.634 167.724 143.088 165.906 142.47L166.74 138.306C170.514 138.546 174.282 138.906 178.014 139.296L183.588 139.854C185.424 140.034 187.302 140.19 188.946 140.25H188.22C190.103 139.914 191.96 139.445 193.776 138.846C195.654 138.246 197.532 137.562 199.41 136.758C201.288 135.954 203.148 135.126 204.996 134.244C205.944 133.812 206.862 133.356 207.762 132.906C208.662 132.456 209.622 131.976 210.444 131.55L214.656 139.032Z" fill="#102962"/>
<path d="M165.978 136.02C165.091 135.398 164.111 134.92 163.074 134.604L161.52 140.67L166.176 142.626L166.704 141.978C167.062 141.545 167.328 141.044 167.486 140.505C167.644 139.966 167.69 139.4 167.622 138.843C167.554 138.285 167.374 137.747 167.091 137.262C166.808 136.777 166.429 136.354 165.978 136.02Z" fill="#FFC3BD"/>
<path d="M161.52 140.67L163.074 134.604L158.73 132.234L157.422 136.506L161.52 140.67Z" fill="#FFC3BD"/>
<path opacity="0.2" d="M200.046 145.2H200.214H200.286C202.578 144.954 209.316 143.82 214.188 139.014C213.462 137.61 212.466 136.524 211.248 136.278C207.888 135.642 203.772 138.048 200.046 145.2Z" fill="#102962"/>
<path d="M204 176.562C209.748 161.04 205.968 146.766 206.688 138.864C206.865 136.916 207.672 135.079 208.986 133.63C210.3 132.182 212.05 131.201 213.972 130.836C217.896 130.08 222.75 129.228 227.376 128.604C228.669 128.426 229.985 128.529 231.234 128.907C232.483 129.285 233.635 129.928 234.612 130.794C235.589 131.659 236.367 132.725 236.893 133.919C237.419 135.113 237.681 136.407 237.66 137.712C237.258 161.112 229.758 176.562 229.758 176.562L217.638 176.508L204 176.562Z" fill="#0A3CB1"/>
<path opacity="0.8" d="M204 176.562C209.748 161.04 205.968 146.766 206.688 138.864C206.865 136.916 207.672 135.079 208.986 133.63C210.3 132.182 212.05 131.201 213.972 130.836C217.896 130.08 222.75 129.228 227.376 128.604C228.669 128.426 229.985 128.529 231.234 128.907C232.483 129.285 233.635 129.928 234.612 130.794C235.589 131.659 236.367 132.725 236.893 133.919C237.419 135.113 237.681 136.407 237.66 137.712C237.258 161.112 229.758 176.562 229.758 176.562L217.638 176.508L204 176.562Z" fill="white"/>
<path d="M158.016 229.524L156.48 239.622H161.358L164.562 229.524H158.016Z" fill="#FFC3BD"/>
<path d="M155.856 237.372L162.378 237.216C162.429 237.21 162.481 237.215 162.53 237.23C162.579 237.246 162.624 237.271 162.662 237.305C162.701 237.339 162.732 237.381 162.753 237.427C162.774 237.474 162.786 237.525 162.786 237.576V242.376C162.757 242.642 162.632 242.888 162.434 243.068C162.236 243.248 161.979 243.35 161.712 243.354C159.444 243.354 158.364 243.27 155.496 243.354C152.442 243.344 149.393 243.144 146.364 242.754C144.042 242.358 144.672 240.18 145.722 240.144C150.462 239.97 153.114 238.98 154.818 237.744C155.115 237.512 155.479 237.381 155.856 237.372Z" fill="#263238"/>
<path opacity="0.2" d="M157.398 233.574L158.016 229.524H164.562L162.99 234.576L157.398 233.574Z" fill="#102962"/>
<path d="M201 172.926C201 172.926 161.31 173.322 160.692 185.892C159.816 203.964 156.762 231.492 156.762 231.492L164.244 233.55C164.244 233.55 174.924 206.232 175.338 192.114C186.504 189.894 215.202 192.114 218.574 184.782C220.222 181.05 220.667 176.898 219.846 172.902L201 172.926Z" fill="#0A3CB1"/>
<path opacity="0.6" d="M201 172.926C201 172.926 161.31 173.322 160.692 185.892C159.816 203.964 156.762 231.492 156.762 231.492L164.244 233.55C164.244 233.55 174.924 206.232 175.338 192.114C186.504 189.894 215.202 192.114 218.574 184.782C220.222 181.05 220.667 176.898 219.846 172.902L201 172.926Z" fill="#102962"/>
<path d="M192.936 233.43L195.582 240.282H200.934L199.092 233.076L192.936 233.43Z" fill="#FFC3BD"/>
<path opacity="0.2" d="M199.59 235.02L198.552 229.746L191.79 230.586L193.524 235.17L199.59 235.02Z" fill="#102962"/>
<path d="M194.13 238.014H200.964C201.075 238.006 201.184 238.041 201.268 238.113C201.352 238.185 201.405 238.288 201.414 238.398L201.744 243.516C201.738 243.793 201.623 244.056 201.424 244.249C201.226 244.442 200.959 244.55 200.682 244.548C198.282 244.506 197.166 244.374 194.16 244.374C192.318 244.374 188.586 244.554 186.036 244.554C183.486 244.554 183.558 242.154 184.632 241.968C189.492 240.996 191.37 239.658 193.08 238.368C193.384 238.143 193.752 238.019 194.13 238.014Z" fill="#263238"/>
<path d="M211.674 172.926C211.674 172.926 175.674 175.368 176.562 187.926C177.528 201.678 191.946 233.568 191.946 233.568H199.2C199.2 233.568 194.4 204.636 192.192 190.62C202.344 190.62 225.87 192.15 229.254 184.8C230.895 181.066 231.336 176.915 230.514 172.92L211.674 172.926Z" fill="#0A3CB1"/>
<path opacity="0.5" d="M211.674 172.926C211.674 172.926 175.674 175.368 176.562 187.926C177.528 201.678 191.946 233.568 191.946 233.568H199.2C199.2 233.568 194.4 204.636 192.192 190.62C202.344 190.62 225.87 192.15 229.254 184.8C230.895 181.066 231.336 176.915 230.514 172.92L211.674 172.926Z" fill="#102962"/>
<path d="M217.128 122.052C217.956 125.256 218.214 129.252 213.738 130.902C212.496 132.882 211.89 134.97 216.672 134.226C220.479 133.734 223.943 131.775 226.326 128.766C223.464 126.258 223.986 118.566 224.712 114.228L217.128 122.052Z" fill="#FFC3BD"/>
<path d="M216.6 127.884C212.49 128.586 209.112 131.766 207.3 135.516C205.488 139.266 205.05 143.538 205.086 147.708C205.122 151.878 205.596 156.03 205.482 160.194C205.356 164.994 204.198 168.396 202.542 172.92C202.542 173.994 204.168 174.6 205.542 174.882C208.41 168.624 210.294 162.636 210.096 155.76C209.946 150.768 209.88 145.08 210.696 140.16C211.512 135.24 217.398 128.814 217.116 127.926L216.6 127.884Z" fill="#263238"/>
<path opacity="0.3" d="M220.62 124.404C220.189 124.724 219.698 124.954 219.177 125.079C218.655 125.205 218.113 125.224 217.584 125.136C217.594 124.357 217.538 123.578 217.416 122.808L222.384 118.728C222.493 119.258 222.563 119.796 222.594 120.336C222.648 121.127 222.494 121.919 222.148 122.632C221.801 123.346 221.275 123.957 220.62 124.404Z" fill="#102962"/>
<path d="M213.192 103.104C207.942 106.074 207.888 114.468 209.508 119.304C209.917 120.573 210.666 121.705 211.675 122.577C212.684 123.449 213.912 124.026 215.227 124.247C216.542 124.467 217.892 124.322 219.13 123.827C220.368 123.332 221.446 122.506 222.246 121.44C224.814 118.194 224.442 114.918 224.316 109.278C224.19 103.638 218.448 100.14 213.192 103.104Z" fill="#FFC3BD"/>
<path opacity="0.2" d="M214.884 118.2C213.192 118.926 211.338 119.868 209.628 119.664C210.088 120.88 210.866 121.95 211.881 122.763C212.895 123.576 214.109 124.102 215.396 124.286C216.683 124.47 217.996 124.305 219.198 123.809C220.399 123.312 221.446 122.503 222.228 121.464C224.346 118.8 225 117 224.4 112.152C221.112 116.004 218.502 116.64 214.884 118.2Z" fill="#102962"/>
<path d="M219.96 105C219.415 105.886 219.172 106.925 219.269 107.96C219.365 108.996 219.795 109.972 220.494 110.742C220.968 111.24 221.55 111.624 222.006 112.134C222.717 112.934 223.088 113.981 223.038 115.05C223.145 114.362 223.487 113.732 224.007 113.269C224.527 112.806 225.192 112.539 225.888 112.512C225.176 114.716 224.464 116.916 223.752 119.112C225.161 118.455 226.379 117.448 227.291 116.188C228.202 114.928 228.777 113.456 228.96 111.912C229.416 107.652 224.16 98.526 219.96 105Z" fill="#263238"/>
<path d="M207.708 105.294C207.306 105.74 207.02 106.278 206.874 106.86C206.804 107.148 206.824 107.451 206.931 107.728C207.038 108.005 207.228 108.242 207.474 108.408C207.929 108.591 208.431 108.616 208.902 108.48L213.702 107.646C216.45 107.166 219.198 106.692 221.91 106.038C223.11 105.75 224.496 105.288 224.976 104.136C226.53 100.386 219.894 99.9 217.674 100.002C213.894 100.2 210.072 102.372 207.708 105.294Z" fill="#263238"/>
<path d="M225.168 111.552C223.596 111.906 222.924 114.168 222.966 115.62C222.966 117.27 224.166 118.344 225.558 117.348C226.592 116.58 227.295 115.447 227.526 114.18C227.808 112.626 226.746 111.198 225.168 111.552Z" fill="#FFC3BD"/>
<path d="M214.062 117.282C213.824 117.441 213.554 117.545 213.27 117.588C212.987 117.63 212.698 117.61 212.424 117.528C213.024 116.172 212.952 116.478 213.138 114.174L214.062 117.282Z" fill="#ED847E"/>
<path d="M216.828 109.8C216.378 109.296 215.148 109.104 214.482 109.2C214.415 109.209 214.346 109.191 214.292 109.151C214.237 109.111 214.2 109.051 214.188 108.984C214.179 108.912 214.197 108.839 214.24 108.78C214.282 108.721 214.345 108.681 214.416 108.666C215.256 108.54 216.654 108.792 217.224 109.422C217.274 109.472 217.301 109.54 217.301 109.611C217.301 109.682 217.274 109.75 217.224 109.8C217.19 109.835 217.149 109.861 217.104 109.878C217.055 109.893 217.003 109.894 216.955 109.88C216.906 109.866 216.862 109.838 216.828 109.8Z" fill="#263238"/>
<path d="M209.064 110.922C209.008 110.883 208.969 110.824 208.955 110.757C208.942 110.689 208.955 110.62 208.992 110.562C209.202 110.183 209.497 109.859 209.855 109.614C210.212 109.369 210.621 109.211 211.05 109.152C211.083 109.151 211.115 109.157 211.146 109.169C211.177 109.181 211.204 109.199 211.228 109.222C211.251 109.245 211.27 109.272 211.283 109.302C211.295 109.333 211.302 109.365 211.302 109.398C211.305 109.471 211.28 109.542 211.232 109.597C211.184 109.652 211.117 109.686 211.044 109.692C210.706 109.746 210.384 109.876 210.104 110.073C209.823 110.269 209.591 110.527 209.424 110.826C209.402 110.865 209.371 110.898 209.333 110.922C209.296 110.946 209.253 110.961 209.208 110.964C209.156 110.968 209.105 110.953 209.064 110.922Z" fill="#263238"/>
<path d="M213.6 119.724C214.177 120.459 214.708 121.228 215.19 122.028L215.562 121.872C217.254 121.14 217.734 120.12 217.758 119.214C217.738 118.493 217.515 117.793 217.116 117.192C216.516 118.23 214.998 119.058 214.17 119.46C213.816 119.634 213.6 119.724 213.6 119.724Z" fill="#2E353A"/>
<path d="M214.158 119.46L214.404 119.796C214.472 119.886 214.567 119.951 214.676 119.981C214.785 120.01 214.9 120.002 215.004 119.958C216.252 119.358 217.08 118.758 217.404 118.08C217.434 118.016 217.449 117.946 217.449 117.876C217.449 117.806 217.434 117.736 217.404 117.672C217.324 117.505 217.232 117.345 217.128 117.192C216.498 118.23 214.986 119.058 214.158 119.46Z" fill="white"/>
<path d="M215.55 121.872C217.242 121.14 217.722 120.12 217.746 119.214C217.103 119.511 216.532 119.942 216.072 120.48C215.755 120.877 215.572 121.364 215.55 121.872Z" fill="#DE5753"/>
<path d="M210.99 112.8C210.696 112.854 210.534 113.274 210.618 113.724C210.702 114.174 211.02 114.498 211.314 114.438C211.608 114.378 211.77 113.97 211.686 113.52C211.602 113.07 211.284 112.8 210.99 112.8Z" fill="#263238"/>
<path d="M216.138 111.972C215.844 112.026 215.682 112.44 215.766 112.896C215.85 113.352 216.168 113.67 216.462 113.61C216.756 113.55 216.918 113.136 216.834 112.686C216.75 112.236 216.432 111.918 216.138 111.972Z" fill="#263238"/>
<path opacity="0.9" d="M208.722 115.236L212.508 114.384L212.574 115.992L209.052 116.832L208.722 115.236Z" fill="white"/>
<g opacity="0.8">
<path opacity="0.9" d="M213.66 114.132L214.11 115.608L218.97 114.564L218.682 112.86L213.66 114.132Z" fill="white"/>
</g>
<path d="M212.532 114.978L212.508 114.384L213.66 114.132L213.828 114.69L212.532 114.978Z" fill="#263238"/>
<path d="M211.152 175.872C211.152 175.872 217.986 178.518 219.552 179.034C221.352 179.739 223.247 180.173 225.174 180.324C226.151 180.39 227.131 180.246 228.049 179.904C228.967 179.562 229.801 179.028 230.496 178.338C232.128 176.598 232.638 173.958 233.064 171.48C234.312 164.204 235.564 156.928 236.82 149.652C237.42 146.052 238.998 140.652 238.866 138.618C238.62 134.838 236.214 130.374 230.088 127.92C227.688 126.966 225.354 127.32 223.35 129.72C222.15 131.148 218.658 134.592 217.8 140.658C217.116 145.518 216.048 151.812 216.114 156.75C216.192 163.242 213.6 171.426 211.152 175.872Z" fill="#263238"/>
<path d="M238.53 136.62C239.226 142.944 235.728 158.886 235.056 159.846C232.188 169.092 224.31 164.106 223.17 163.68C221.184 162.948 219.162 161.514 217.272 160.56C213.606 158.76 210.132 157.272 206.724 155.01L208.644 151.218C212.382 152.49 222.96 155.226 224.706 155.652C225.462 155.85 228.408 157.392 228.378 155.358C228.792 154.68 229.368 141.474 230.634 136.806C230.778 136.282 231.03 135.794 231.372 135.372L231.486 135.228C231.948 134.649 232.56 134.208 233.256 133.953C233.952 133.698 234.704 133.639 235.431 133.783C236.158 133.927 236.831 134.267 237.378 134.767C237.924 135.268 238.323 135.909 238.53 136.62Z" fill="#263238"/>
<path opacity="0.1" d="M238.53 136.62C239.226 142.944 235.728 158.886 235.056 159.846C232.188 169.092 224.31 164.106 223.17 163.68C221.184 162.948 219.162 161.514 217.272 160.56C213.606 158.76 210.132 157.272 206.724 155.01L208.644 151.218C212.382 152.49 222.96 155.226 224.706 155.652C225.462 155.85 228.408 157.392 228.378 155.358C228.792 154.68 229.368 141.474 230.634 136.806C230.778 136.282 231.03 135.794 231.372 135.372L231.486 135.228C231.948 134.649 232.56 134.208 233.256 133.953C233.952 133.698 234.704 133.639 235.431 133.783C236.158 133.927 236.831 134.267 237.378 134.767C237.924 135.268 238.323 135.909 238.53 136.62Z" fill="white"/>
<path d="M207.144 160.5H189.384L187.356 137.328H205.116L207.144 160.5Z" fill="#263238"/>
<path opacity="0.5" d="M207.144 160.5H189.384L187.356 137.328H205.116L207.144 160.5Z" fill="white"/>
<path d="M206.514 160.386H188.754L186.726 137.214H204.486L206.514 160.386Z" fill="#0A3CB1"/>
<path opacity="0.8" d="M206.514 160.386H188.754L186.726 137.214H204.486L206.514 160.386Z" fill="white"/>
<path d="M199.47 138.66H192L191.748 135.762H199.212L199.47 138.66Z" fill="#0A3CB1"/>
<path d="M191.748 135.762L192.48 135.51H200.214L200.322 136.74L199.746 137.406L199.71 138.414L199.47 138.66L199.212 135.762H191.748Z" fill="#0A3CB1"/>
<path opacity="0.5" d="M191.748 135.762L192.48 135.51H200.214L200.322 136.74L199.746 137.406L199.71 138.414L199.47 138.66L199.212 135.762H191.748Z" fill="#102962"/>
<path d="M210.06 152.472L210.462 154.638C209.502 157.14 204 156.48 204 156.48V150.078L208.854 151.206C209.155 151.28 209.429 151.438 209.642 151.662C209.856 151.887 210.001 152.168 210.06 152.472Z" fill="#FFC3BD"/>
<path d="M203.988 150.078L204.012 156.492L199.14 156.612L198.024 150.972L203.988 150.078Z" fill="#FFC3BD"/>
<path d="M222.54 202.2L224.394 175.2C224.658 171.384 226.518 168.204 229.098 166.698C230.729 165.393 232.72 164.621 234.804 164.484C235.023 164.462 235.244 164.452 235.464 164.454C237.139 164.445 238.79 164.857 240.264 165.654C240.31 165.674 240.354 165.698 240.396 165.726C241.918 166.571 243.223 167.756 244.212 169.188C245.708 171.366 246.504 173.949 246.492 176.592C246.492 182.592 242.538 187.59 237.348 188.592L235.338 217.8C235.164 220.284 233.538 222.192 231.57 222.192H221.502L222.54 202.2Z" fill="#0A3CB1"/>
<path opacity="0.1" d="M222.54 202.2L224.394 175.2C224.658 171.384 226.518 168.204 229.098 166.698C230.729 165.393 232.72 164.621 234.804 164.484C235.023 164.462 235.244 164.452 235.464 164.454C237.139 164.445 238.79 164.857 240.264 165.654C240.31 165.674 240.354 165.698 240.396 165.726C241.918 166.571 243.223 167.756 244.212 169.188C245.708 171.366 246.504 173.949 246.492 176.592C246.492 182.592 242.538 187.59 237.348 188.592L235.338 217.8C235.164 220.284 233.538 222.192 231.57 222.192H221.502L222.54 202.2Z" fill="white"/>
<path d="M130.98 76.56V101.646C130.98 102.283 130.727 102.893 130.277 103.343C129.827 103.793 129.217 104.046 128.58 104.046H102.888L93.708 111.144C93.4476 111.341 93.1374 111.461 92.8124 111.491C92.4873 111.521 92.1604 111.459 91.8685 111.313C91.5766 111.167 91.3312 110.942 91.1601 110.665C90.989 110.387 90.8989 110.066 90.9 109.74V104.046H89.466C88.8295 104.046 88.2191 103.793 87.769 103.343C87.3189 102.893 87.066 102.283 87.066 101.646V76.554C87.0676 76.2415 87.1311 75.9324 87.2528 75.6446C87.3746 75.3568 87.5522 75.096 87.7754 74.8773C87.9986 74.6586 88.2629 74.4863 88.5531 74.3704C88.8433 74.2545 89.1536 74.1972 89.466 74.202H128.622C129.247 74.202 129.847 74.4504 130.289 74.8926C130.732 75.3348 130.98 75.9346 130.98 76.56V76.56Z" stroke="#0A3CB1" stroke-miterlimit="10"/>
<path d="M106.92 70.668H102.018V71.268H106.92V70.668Z" fill="#0A3CB1"/>
<path d="M84 77.736H83.4V74.778C83.4016 73.6858 83.8366 72.6389 84.6094 71.8672C85.3823 71.0954 86.4298 70.662 87.522 70.662H98.46V71.262H87.51C86.5775 71.2636 85.6834 71.6343 85.0235 72.2932C84.3635 72.9521 83.9912 73.8454 83.988 74.778L84 77.736Z" fill="#0A3CB1"/>
<path d="M118.662 92.58C118.401 92.5815 118.143 92.529 117.903 92.4259C117.664 92.3228 117.448 92.1712 117.27 91.9808C117.092 91.7903 116.956 91.565 116.869 91.3191C116.782 91.0732 116.747 90.812 116.766 90.552C117.408 83.238 123.204 82.566 123.93 74.25C124.14 71.85 123.264 70.95 121.59 70.95C119.916 70.95 118.884 71.856 118.674 74.25L118.554 75.618C118.5 76.236 118.216 76.8113 117.758 77.2301C117.301 77.6489 116.702 77.8808 116.082 77.88C115.739 77.8796 115.399 77.8079 115.085 77.6693C114.771 77.5308 114.489 77.3284 114.257 77.0751C114.025 76.8218 113.848 76.5231 113.738 76.1979C113.628 75.8727 113.586 75.5281 113.616 75.186L113.67 74.586C114.138 69.234 117.036 66.186 122.154 66.186C127.272 66.186 129.63 69.246 129.162 74.586C128.4 83.256 122.07 84.6 121.53 90.714C121.533 90.7439 121.533 90.774 121.53 90.804C121.503 91.289 121.291 91.7453 120.939 92.0797C120.586 92.4142 120.12 92.6017 119.634 92.604L118.662 92.58ZM121.26 97.668C121.206 98.2972 120.917 98.8831 120.452 99.3098C119.986 99.7365 119.378 99.9728 118.746 99.972C118.396 99.9725 118.05 99.9001 117.729 99.7595C117.409 99.6188 117.121 99.4129 116.885 99.155C116.648 98.897 116.468 98.5926 116.356 98.2612C116.243 97.9298 116.201 97.5786 116.232 97.23C116.286 96.5997 116.575 96.013 117.042 95.5861C117.509 95.1593 118.119 94.9237 118.752 94.926C119.101 94.9272 119.446 95.0008 119.766 95.1421C120.085 95.2834 120.371 95.4895 120.607 95.7471C120.843 96.0048 121.023 96.3085 121.135 96.6391C121.247 96.9697 121.29 97.3201 121.26 97.668Z" fill="#0A3CB1"/>
<path d="M111.9 86.706H98.1C97.7818 86.706 97.4765 86.5795 97.2515 86.3545C97.0265 86.1295 96.9 85.8242 96.9 85.506C96.9 85.1877 97.0265 84.8825 97.2515 84.6574C97.4765 84.4324 97.7818 84.306 98.1 84.306H111.9C112.218 84.306 112.524 84.4324 112.749 84.6574C112.974 84.8825 113.1 85.1877 113.1 85.506C113.1 85.8242 112.974 86.1295 112.749 86.3545C112.524 86.5795 112.218 86.706 111.9 86.706Z" fill="#0A3CB1"/>
<path d="M109.992 91.458H98.124C97.8058 91.458 97.5005 91.3316 97.2755 91.1065C97.0504 90.8815 96.924 90.5762 96.924 90.258C96.924 89.9397 97.0504 89.6345 97.2755 89.4095C97.5005 89.1844 97.8058 89.058 98.124 89.058H109.992C110.31 89.058 110.615 89.1844 110.841 89.4095C111.066 89.6345 111.192 89.9397 111.192 90.258C111.192 90.5762 111.066 90.8815 110.841 91.1065C110.615 91.3316 110.31 91.458 109.992 91.458Z" fill="#0A3CB1"/>
<path d="M108.084 96.204H98.124C97.8058 96.204 97.5005 96.0775 97.2755 95.8525C97.0504 95.6274 96.924 95.3222 96.924 95.004C96.924 94.6857 97.0504 94.3805 97.2755 94.1554C97.5005 93.9304 97.8058 93.804 98.124 93.804H108.084C108.402 93.804 108.707 93.9304 108.933 94.1554C109.158 94.3805 109.284 94.6857 109.284 95.004C109.284 95.3222 109.158 95.6274 108.933 95.8525C108.707 96.0775 108.402 96.204 108.084 96.204Z" fill="#0A3CB1"/>
<path d="M79.848 194.106H71.082C68.946 194.106 67.218 195.456 67.218 197.106V202.29C67.218 203.958 68.946 205.29 71.082 205.29H79.848V194.106Z" fill="#0A3CB1"/>
<path d="M39.108 218.52L36.06 170.004C35.792 165.738 36.4008 161.462 37.8491 157.441C39.2973 153.419 41.5542 149.737 44.4805 146.621C47.4067 143.505 50.9404 141.022 54.8634 139.325C58.7864 137.627 63.0155 136.752 67.29 136.752C75.2851 136.752 82.9773 139.811 88.788 145.303C94.5987 150.794 98.0873 158.302 98.538 166.284L101.73 222.948H43.8C42.6021 222.943 41.4511 222.482 40.5799 221.66C39.7087 220.838 39.1826 219.716 39.108 218.52Z" fill="#0A3CB1"/>
<path opacity="0.1" d="M39 216.762L36.06 170.004C35.792 165.738 36.4008 161.462 37.8491 157.441C39.2973 153.419 41.5542 149.737 44.4805 146.621C47.4067 143.505 50.9404 141.022 54.8634 139.325C58.7864 137.627 63.0155 136.752 67.29 136.752C75.2851 136.752 82.9773 139.811 88.788 145.303C94.5987 150.794 98.0873 158.302 98.538 166.284L101.73 222.948H45.6C43.919 222.951 42.3001 222.313 41.0736 221.164C39.8471 220.014 39.1054 218.44 39 216.762Z" fill="#102962"/>
<path d="M48.504 222.948L45.18 170.004C44.9119 165.737 45.521 161.461 46.9696 157.439C48.4182 153.417 50.6756 149.735 53.6025 146.619C56.5294 143.503 60.0638 141.02 63.9875 139.323C67.9112 137.626 72.141 136.751 76.416 136.752C84.4101 136.753 92.1007 139.813 97.9102 145.305C103.72 150.796 107.207 158.303 107.658 166.284L110.856 222.948H48.504Z" fill="#0A3CB1"/>
<path d="M47.508 232.062H46.71C46.494 232.048 46.2899 231.959 46.1331 231.809C45.9763 231.66 45.8768 231.461 45.852 231.246L44.652 222.948H49.518L48.318 231.246C48.2971 231.454 48.2053 231.649 48.0578 231.798C47.9103 231.946 47.7161 232.04 47.508 232.062Z" fill="#0A3CB1"/>
<path opacity="0.7" d="M47.508 232.062H46.71C46.494 232.048 46.2899 231.959 46.1331 231.809C45.9763 231.66 45.8768 231.461 45.852 231.246L44.652 222.948H49.518L48.318 231.246C48.2971 231.454 48.2053 231.649 48.0578 231.798C47.9103 231.946 47.7161 232.04 47.508 232.062Z" fill="white"/>
<path d="M125.898 232.062H125.172C124.967 232.04 124.777 231.945 124.635 231.796C124.494 231.646 124.41 231.452 124.398 231.246L123.33 222.948H127.74L126.672 231.246C126.66 231.452 126.576 231.646 126.435 231.796C126.293 231.945 126.103 232.04 125.898 232.062Z" fill="#0A3CB1"/>
<path opacity="0.5" d="M125.898 232.062H125.172C124.967 232.04 124.777 231.945 124.635 231.796C124.494 231.646 124.41 231.452 124.398 231.246L123.33 222.948H127.74L126.672 231.246C126.66 231.452 126.576 231.646 126.435 231.796C126.293 231.945 126.103 232.04 125.898 232.062Z" fill="white"/>
<path d="M103.332 232.062H102.6C102.395 232.04 102.205 231.945 102.063 231.796C101.922 231.646 101.838 231.452 101.826 231.246L100.752 222.948H105.168L104.1 231.246C104.088 231.45 104.004 231.644 103.864 231.793C103.723 231.942 103.535 232.037 103.332 232.062Z" fill="#0A3CB1"/>
<path opacity="0.7" d="M103.332 232.062H102.6C102.395 232.04 102.205 231.945 102.063 231.796C101.922 231.646 101.838 231.452 101.826 231.246L100.752 222.948H105.168L104.1 231.246C104.088 231.45 104.004 231.644 103.864 231.793C103.723 231.942 103.535 232.037 103.332 232.062Z" fill="white"/>
<path d="M71.808 232.062H71.01C70.7937 232.049 70.5889 231.96 70.4319 231.811C70.2749 231.661 70.1757 231.461 70.152 231.246L68.952 222.948H73.818L72.618 231.246C72.5972 231.454 72.5053 231.649 72.3578 231.798C72.2103 231.946 72.0162 232.04 71.808 232.062Z" fill="#0A3CB1"/>
<path opacity="0.5" d="M71.808 232.062H71.01C70.7937 232.049 70.5889 231.96 70.4319 231.811C70.2749 231.661 70.1757 231.461 70.152 231.246L68.952 222.948H73.818L72.618 231.246C72.5972 231.454 72.5053 231.649 72.3578 231.798C72.2103 231.946 72.0162 232.04 71.808 232.062Z" fill="white"/>
<path d="M98.226 202.95H119.562L120.972 182.4L121.272 177.984L121.416 175.95C121.453 175.416 121.521 174.886 121.62 174.36C121.62 174.246 121.674 174.126 121.698 174.012C121.711 173.924 121.733 173.837 121.764 173.754C122.339 171.659 123.459 169.755 125.01 168.234C126.798 166.467 129.162 165.402 131.67 165.234H111.6C111.378 165.234 111.162 165.234 110.94 165.234C108.218 165.248 105.608 166.324 103.668 168.234C102.117 169.755 100.997 171.659 100.422 173.754C100.391 173.837 100.369 173.924 100.356 174.012C100.215 174.65 100.121 175.298 100.074 175.95L99.936 177.984L98.226 202.95Z" fill="#0A3CB1"/>
<path opacity="0.1" d="M98.226 202.95H119.562L120.972 182.4L121.272 177.984L121.416 175.95C121.453 175.416 121.521 174.886 121.62 174.36C121.62 174.246 121.674 174.126 121.698 174.012C121.711 173.924 121.733 173.837 121.764 173.754C122.339 171.659 123.459 169.755 125.01 168.234C126.798 166.467 129.162 165.402 131.67 165.234H111.6C111.378 165.234 111.162 165.234 110.94 165.234C108.218 165.248 105.608 166.324 103.668 168.234C102.117 169.755 100.997 171.659 100.422 173.754C100.391 173.837 100.369 173.924 100.356 174.012C100.215 174.65 100.121 175.298 100.074 175.95L99.936 177.984L98.226 202.95Z" fill="#102962"/>
<g opacity="0.1">
<path d="M81.318 192H72.744C70.662 192 68.976 193.32 68.976 194.946V200.016C68.976 201.642 70.662 202.962 72.744 202.962H81.318V192Z" fill="#102962"/>
</g>
<path d="M116.304 191.994H78.564C76.768 191.994 75.312 193.45 75.312 195.246V199.704C75.312 201.5 76.768 202.956 78.564 202.956H116.304C118.1 202.956 119.556 201.5 119.556 199.704V195.246C119.556 193.45 118.1 191.994 116.304 191.994Z" fill="#0A3CB1"/>
<path d="M27.3 177.342C27.2949 180.211 28.3046 182.989 30.1504 185.185C31.9962 187.381 34.5592 188.854 37.386 189.342L39.6 218.556C39.792 221.04 41.592 222.948 43.752 222.948H67.29C65.13 222.948 63.33 221.04 63.138 218.556L61.938 202.956L60.906 189.33C59.0593 189.007 57.3124 188.261 55.8021 187.15C54.2917 186.04 53.0589 184.594 52.2 182.928C52.086 182.712 51.984 182.49 51.888 182.268C51.1919 180.719 50.8339 179.04 50.838 177.342C50.8382 176.507 50.9247 175.675 51.096 174.858C51.162 174.534 51.246 174.21 51.33 173.898C51.7606 172.467 52.4455 171.126 53.352 169.938C54.4734 168.482 55.9091 167.299 57.552 166.476C59.2275 165.634 61.0766 165.194 62.952 165.192H39.456C38.2353 165.191 37.0216 165.375 35.856 165.738C33.4556 166.478 31.3444 167.946 29.814 169.938C28.1814 172.061 27.2975 174.664 27.3 177.342Z" fill="#0A3CB1"/>
<path opacity="0.1" d="M27.3 177.342C27.2949 180.211 28.3046 182.989 30.1504 185.185C31.9962 187.381 34.5592 188.854 37.386 189.342L39.6 218.556C39.792 221.04 41.592 222.948 43.752 222.948H67.29C65.13 222.948 63.33 221.04 63.138 218.556L61.938 202.956L60.906 189.33C59.0593 189.007 57.3124 188.261 55.8021 187.15C54.2917 186.04 53.0589 184.594 52.2 182.928C52.086 182.712 51.984 182.49 51.888 182.268C51.1919 180.719 50.8339 179.04 50.838 177.342C50.8382 176.507 50.9247 175.675 51.096 174.858C51.162 174.534 51.246 174.21 51.33 173.898C51.7606 172.467 52.4455 171.126 53.352 169.938C54.4734 168.482 55.9091 167.299 57.552 166.476C59.2275 165.634 61.0766 165.194 62.952 165.192H39.456C38.2353 165.191 37.0216 165.375 35.856 165.738C33.4556 166.478 31.3444 167.946 29.814 169.938C28.1814 172.061 27.2975 174.664 27.3 177.342Z" fill="#102962"/>
<path d="M50.832 177.342C50.832 183.342 54.786 188.346 59.976 189.342L61.98 218.58C62.154 221.07 63.78 222.972 65.748 222.972H128.592C130.548 222.972 132.192 221.07 132.36 218.58L134.37 189.3C139.452 188.232 143.298 183.3 143.298 177.366C143.312 174.878 142.608 172.438 141.27 170.34C140.254 168.741 138.856 167.419 137.202 166.494C135.698 165.654 134.005 165.212 132.282 165.21C129.559 165.222 126.949 166.299 125.01 168.21C123.458 169.731 122.336 171.635 121.758 173.73C121.732 173.814 121.712 173.901 121.698 173.988C121.554 174.626 121.46 175.274 121.416 175.926L121.272 177.96L119.562 202.944H74.778L72.924 175.944C72.654 172.128 70.8 168.948 68.22 167.442C66.5868 166.142 64.5967 165.37 62.514 165.228C62.292 165.228 62.076 165.228 61.854 165.228C60.1787 165.219 58.5279 165.631 57.054 166.428C57.0058 166.445 56.9596 166.467 56.916 166.494C55.3981 167.344 54.0932 168.528 53.1 169.956C51.6093 172.129 50.818 174.706 50.832 177.342Z" fill="#0A3CB1"/>
<path opacity="0.1" d="M75.81 222.948H128.61C130.566 222.948 132.21 221.046 132.378 218.556L134.388 189.276C139.47 188.208 143.316 183.276 143.316 177.342C143.33 174.854 142.626 172.414 141.288 170.316C140.272 168.717 138.874 167.395 137.22 166.47C135.716 165.63 134.023 165.188 132.3 165.186C129.577 165.198 126.967 166.275 125.028 168.186C123.476 169.707 122.354 171.611 121.776 173.706C121.75 173.79 121.73 173.877 121.716 173.964C121.572 174.602 121.478 175.25 121.434 175.902L121.29 177.936L119.58 202.92H74.778L75.81 222.948Z" fill="white"/>
<path d="M91.878 233.274L96.996 234.69L101.592 222.66L96.474 221.244L91.878 233.274Z" fill="#FFC3BD"/>
<path d="M99.288 233.094C98.8841 232.571 98.3005 232.216 97.65 232.098L92.4 231.072C92.2775 231.036 92.1459 231.05 92.0337 231.111C91.9214 231.172 91.8375 231.274 91.8 231.396L90.174 236.196C90.1275 236.326 90.1072 236.465 90.1143 236.603C90.1214 236.741 90.1558 236.877 90.2155 237.002C90.2751 237.126 90.3589 237.238 90.462 237.331C90.565 237.423 90.6854 237.494 90.816 237.54H90.852C92.796 238.308 94.11 238.044 97.146 238.632C99.024 238.992 102.954 240.24 105.582 240.132C108.21 240.024 108.204 237.426 107.1 237.234C103.2 236.634 100.2 234.282 99.288 233.094Z" fill="#263238"/>
<g opacity="0.2">
<path d="M101.592 222.666L99.222 228.87L94.104 227.442L96.468 221.244L101.592 222.666Z" fill="#102962"/>
</g>
<path d="M84.51 177C84.51 177 115.326 176.832 114.366 187.152C113.718 194.124 110.37 201.45 107.766 208.524C103.98 218.778 100.698 227.724 100.698 227.724L93.678 225.294C93.678 225.294 99.984 195.642 104.232 192.606H78.174C69.552 192.606 65.826 183.138 74.22 172.098C79.35 172.116 84.51 177 84.51 177Z" fill="#0A3CB1"/>
<path opacity="0.6" d="M84.51 177C84.51 177 115.326 176.832 114.366 187.152C114.84 193.566 100.692 227.712 100.692 227.712L93.672 225.282C93.672 225.282 99.978 195.63 104.226 192.594H78.174C69.552 192.594 65.826 183.126 74.22 172.086C79.35 172.116 84.51 177 84.51 177Z" fill="#102962"/>
<path d="M106.242 158.262C102.45 161.724 95.004 153.528 93.804 152.556C91.236 150.456 83.688 143.412 84.084 140.964C85.284 133.764 97.092 143.964 100.506 150.996L106.242 158.262Z" fill="#263238"/>
<path d="M73.056 136.596C71.154 136.998 69.096 136.314 67.758 137.724C66.42 139.134 65.862 141.114 65.67 143.046C65.501 145.745 65.6419 148.455 66.09 151.122C66.49 154.374 66.908 157.624 67.344 160.872C67.6145 163.547 67.5115 166.247 67.038 168.894C66.988 169.175 67.0328 169.465 67.1653 169.718C67.2978 169.971 67.5104 170.173 67.77 170.292C67.77 170.292 82.524 170.796 86.814 170.634C89.094 170.55 87.528 164.55 88.23 161.034C88.386 160.254 89.91 157.05 90.138 156.234C91.194 152.364 90.492 149.7 89.538 145.812C88.824 142.986 88.53 138.912 87.09 138.612C84.498 138.078 78.348 135.468 73.056 136.596Z" fill="#0A3CB1"/>
<path opacity="0.8" d="M73.056 136.596C71.154 136.998 69.096 136.314 67.758 137.724C66.42 139.134 65.862 141.114 65.67 143.046C65.501 145.745 65.6419 148.455 66.09 151.122C66.49 154.374 66.908 157.624 67.344 160.872C67.6145 163.547 67.5115 166.247 67.038 168.894C66.988 169.175 67.0328 169.465 67.1653 169.718C67.2978 169.971 67.5104 170.173 67.77 170.292C67.77 170.292 82.524 170.796 86.814 170.634C89.094 170.55 87.528 164.55 88.23 161.034C88.386 160.254 89.91 157.05 90.138 156.234C91.194 152.364 90.492 149.7 89.538 145.812C88.824 142.986 88.53 138.912 87.09 138.612C84.498 138.078 78.348 135.468 73.056 136.596Z" fill="white"/>
<path d="M70.95 139.368C70.752 139.068 65.55 134.7 64.62 139.746C63.306 146.772 66.024 153.684 66.024 153.684C66.024 153.684 66.624 161.286 68.856 162.048C71.088 162.81 73.164 162.996 73.908 161.694C74.3892 160.679 74.6431 159.571 74.652 158.448C74.652 158.448 74.4 144.6 70.95 139.368Z" fill="#263238"/>
<path d="M74.544 126.954C75.078 130.188 75.528 136.098 73.218 138.18C73.218 138.18 78.864 141.138 82.572 146.298C83.3953 145.684 84.0042 144.825 84.3122 143.845C84.6203 142.865 84.6118 141.813 84.288 140.838C84.1021 140.223 83.7937 139.652 83.3812 139.159C82.9688 138.666 82.4608 138.261 81.888 137.97C79.698 136.77 79.908 134.502 80.508 132.378L74.544 126.954Z" fill="#E8BFBF"/>
<path opacity="0.2" d="M75.282 132.444L77.388 133.254C78.2897 133.603 79.2545 133.758 80.22 133.71C80.0698 134.37 80.0698 135.054 80.22 135.714C79.4649 135.921 78.6662 135.903 77.9207 135.665C77.1751 135.426 76.5149 134.976 76.02 134.37C75.6796 133.768 75.4309 133.119 75.282 132.444Z" fill="#102962"/>
<path d="M127.56 222.93H133.296L127.29 208.548L123.402 215.148L127.56 222.93Z" fill="#FFC3BD"/>
<path d="M132.822 221.568L126.096 220.038C125.981 220.009 125.859 220.024 125.754 220.081C125.65 220.138 125.571 220.232 125.532 220.344L123.654 225.516C123.616 225.646 123.605 225.783 123.62 225.918C123.635 226.053 123.677 226.183 123.743 226.302C123.809 226.421 123.897 226.525 124.003 226.61C124.11 226.694 124.232 226.757 124.362 226.794C126.72 227.286 127.878 227.394 130.836 228.072C132.636 228.486 137.268 229.698 139.782 230.268C142.296 230.838 142.956 228.378 141.954 227.91C137.466 225.834 135.036 223.848 133.734 222.156C133.507 221.861 133.185 221.653 132.822 221.568Z" fill="#263238"/>
<g opacity="0.2">
<path d="M127.29 208.548L129.846 214.674L124.686 217.554L123.402 215.154L127.29 208.548Z" fill="#102962"/>
</g>
<path d="M66.924 170.358L66.324 172.314C66.246 172.464 66.42 172.62 66.672 172.632L88.872 173.304C89.076 173.304 89.238 173.22 89.256 173.094L89.514 171.126C89.514 170.994 89.358 170.874 89.148 170.862L67.308 170.202C67.2358 170.191 67.162 170.199 67.0943 170.227C67.0267 170.254 66.9678 170.3 66.924 170.358Z" fill="#263238"/>
<path d="M94.692 186.408C87.39 189.522 79.47 192.63 75.162 192.63C66.534 192.63 58.872 186.402 67.038 172.23C72.174 172.23 81.096 172.374 81.096 172.374C81.096 172.374 97.896 167.574 110.124 168.99C113.022 169.328 115.737 170.576 117.882 172.554C120.026 174.532 121.488 177.139 122.058 180C125.154 195.6 129.924 212.472 129.924 212.472L123.786 216.672C123.786 216.672 114.216 196.554 108.708 180.6C105.792 181.518 100.434 183.96 94.692 186.408Z" fill="#0A3CB1"/>
<path opacity="0.5" d="M122.058 180C121.49 177.137 120.029 174.527 117.885 172.547C115.74 170.566 113.023 169.317 110.124 168.978C97.92 167.586 81.096 172.362 81.096 172.362C81.096 172.362 72.174 172.2 67.038 172.218C58.74 186.33 66.534 192.618 75.162 192.618C79.47 192.618 87.39 189.51 94.692 186.396C100.434 183.948 105.792 181.506 108.708 180.57C114.216 196.542 123.786 216.666 123.786 216.666L129.924 212.466C129.924 212.466 125.154 195.6 122.058 180Z" fill="#102962"/>
<path d="M114.366 187.2C114.171 189.204 113.871 191.197 113.466 193.17C113.436 193.104 113.412 193.044 113.388 192.978C113.364 192.912 113.388 192.948 113.388 192.93C113.368 192.864 113.342 192.799 113.31 192.738C111.678 188.682 110.082 184.524 108.732 180.606H108.774C112.266 182.088 114.648 184.2 114.366 187.2Z" fill="#0A3CB1"/>
<path opacity="0.6" d="M114.366 187.2C114.171 189.204 113.871 191.197 113.466 193.17C113.436 193.104 113.412 193.044 113.388 192.978C113.364 192.912 113.388 192.948 113.388 192.93C113.368 192.864 113.342 192.799 113.31 192.738C111.678 188.682 110.082 184.524 108.732 180.606H108.774C112.266 182.088 114.648 184.2 114.366 187.2Z" fill="#102962"/>
<path d="M70.608 123.846C72.408 128.916 73.068 131.1 76.44 133.002C81.522 135.87 87.342 132.534 87.09 127.002C86.862 122.052 83.952 114.588 78.312 113.988C77.0677 113.848 75.8083 114.029 74.6536 114.513C73.4989 114.997 72.4873 115.769 71.7151 116.755C70.943 117.74 70.4358 118.907 70.242 120.144C70.0483 121.381 70.1742 122.647 70.608 123.822V123.846Z" fill="#E8BFBF"/>
<path d="M79.722 123.186C79.848 123.624 80.166 123.882 80.442 123.786C80.718 123.69 80.826 123.306 80.718 122.88C80.61 122.454 80.28 122.184 79.998 122.28C79.716 122.376 79.602 122.766 79.722 123.186Z" fill="#263238"/>
<path d="M84.432 121.698C84.558 122.142 84.876 122.4 85.152 122.298C85.428 122.196 85.536 121.818 85.428 121.392C85.32 120.966 84.984 120.696 84.714 120.792C84.444 120.888 84.312 121.284 84.432 121.698Z" fill="#263238"/>
<path d="M84.6 120.858L85.524 120.258C85.524 120.258 85.23 121.2 84.6 120.858Z" fill="#263238"/>
<path d="M82.746 122.658C83.3952 123.51 84.1584 124.269 85.014 124.914C84.8422 125.126 84.6257 125.298 84.38 125.418C84.1342 125.537 83.8652 125.6 83.592 125.604L82.746 122.658Z" fill="#ED847E"/>
<path d="M67.296 127.2C67.6646 128.113 67.9439 129.059 68.13 130.026C68.1811 130.998 67.8683 131.955 67.2527 132.709C66.6371 133.463 65.7627 133.961 64.8 134.106C65.6384 134.329 66.5283 134.256 67.3188 133.899C68.1094 133.541 68.7521 132.921 69.138 132.144C68.6793 133.365 67.7715 134.366 66.6 134.94C67.4373 134.949 68.2654 134.765 69.0199 134.402C69.7744 134.039 70.4349 133.506 70.95 132.846C70.668 133.578 70.35 134.304 70.098 135.036C71.5227 134.173 72.6926 132.947 73.488 131.484C73.806 130.884 74.046 130.104 73.626 129.576C73.206 129.048 72.54 129.084 71.928 129.072C71.316 129.06 70.578 128.916 70.356 128.346C70.134 127.776 70.542 127.206 70.986 126.816C71.43 126.426 71.964 126.066 72.126 125.496C72.2028 125.084 72.1739 124.658 72.042 124.26C71.766 123.156 71.494 122.05 71.226 120.942C71.1531 120.551 71.0131 120.175 70.812 119.832C69.612 118.032 68.274 120.672 67.812 121.566C66.9472 123.315 66.7633 125.323 67.296 127.2Z" fill="#263238"/>
<path d="M70.254 128.814C70.9336 129.697 71.9338 130.277 73.038 130.428C74.508 130.608 75.024 129.228 74.436 127.974C73.902 126.822 72.498 125.352 71.112 125.742C69.726 126.132 69.426 127.71 70.254 128.814Z" fill="#E8BFBF"/>
<path d="M79.8 119.562C79.7902 119.618 79.7638 119.67 79.7242 119.71C79.6846 119.751 79.6337 119.779 79.578 119.79C78.378 120.018 77.682 121.464 77.682 121.476C77.6519 121.541 77.5973 121.593 77.5301 121.618C77.4628 121.644 77.3881 121.643 77.322 121.614C77.2581 121.584 77.2084 121.53 77.1838 121.464C77.1591 121.398 77.1613 121.325 77.19 121.26C77.244 121.206 77.988 119.544 79.476 119.256C79.5458 119.245 79.617 119.262 79.675 119.302C79.733 119.342 79.7735 119.403 79.788 119.472C79.8008 119.5 79.805 119.531 79.8 119.562Z" fill="#263238"/>
<path d="M83.004 118.362C82.9639 118.356 82.923 118.358 82.8837 118.368C82.8445 118.378 82.8078 118.397 82.776 118.422C82.71 118.494 82.488 118.62 82.614 118.686C83.346 119.058 84.36 119.67 85.14 119.544C85.272 119.544 85.584 119.406 85.518 119.31C85.4729 119.262 85.4161 119.226 85.353 119.206C85.2899 119.186 85.2227 119.182 85.158 119.196C84.558 119.28 83.712 118.698 83.136 118.398C83.0937 118.38 83.0494 118.368 83.004 118.362Z" fill="#263238"/>
<path d="M79.884 122.34L80.814 121.74C80.814 121.74 80.52 122.694 79.884 122.34Z" fill="#263238"/>
<path d="M79.8 111.768C77.754 111.396 77.49 111.258 75.414 111.39C73.3171 111.456 71.2897 112.157 69.6 113.4C68.0215 114.705 66.9079 116.486 66.426 118.476C65.9543 120.459 65.9012 122.519 66.27 124.524C66.3362 125.482 66.7502 126.382 67.434 127.056C67.5037 125.978 67.6867 124.91 67.98 123.87C68.2859 122.82 68.916 121.894 69.78 121.224C70.1614 121.018 70.4899 120.726 70.74 120.372C70.8698 120.022 70.9428 119.653 70.956 119.28C71.1441 118.44 71.6465 117.704 72.36 117.222C73.0687 116.752 73.8273 116.361 74.622 116.058C77.148 114.972 79.902 114.348 82.23 112.884C81.4683 112.415 80.6523 112.04 79.8 111.768Z" fill="#263238"/>
<path d="M69.33 119.796C69.8794 120.463 70.6315 120.933 71.472 121.134C72.468 121.362 74.958 121.302 75.108 121.044C75.258 120.786 74.37 117.99 73.362 117.822C74.0574 118.493 74.8878 119.009 75.798 119.334C76.8278 119.54 77.8882 119.54 78.918 119.334C79.446 119.214 78.264 117.03 77.406 116.406C79.992 116.946 82.728 117.564 84.606 119.406C86.484 121.248 87.294 124.164 87.198 126.882C87.6381 126.528 87.9916 126.077 88.2317 125.566C88.4719 125.054 88.5924 124.495 88.584 123.93C89.037 125.335 89.203 126.818 89.0721 128.288C88.9412 129.759 88.5161 131.189 87.822 132.492C90.57 130.236 91.596 126.294 90.876 122.814C90.156 119.334 87.876 116.304 85.11 114.078C82.71 112.176 79.854 110.754 76.812 110.682C72.822 110.562 65.43 115.098 69.33 119.796Z" fill="#263238"/>
<path d="M72.564 135.84C72.564 135.642 72.612 135.378 72.636 135.102C72.6884 134.468 72.5039 133.838 72.1182 133.332C71.7324 132.827 71.173 132.483 70.548 132.366C70.3624 132.333 70.1891 132.251 70.0457 132.129C69.9023 132.006 69.794 131.848 69.732 131.67C69.27 130.326 69.09 129.918 68.646 128.598C67.446 128.304 66 128.754 64.746 128.886C64.3983 130.392 64.3737 131.954 64.674 133.47C64.7221 133.809 64.8541 134.131 65.058 134.406C66.1967 135.339 67.456 136.114 68.802 136.71C69.882 137.04 71.4 135.942 72.564 135.84Z" fill="#E8BFBF"/>
<path d="M68.928 136.74C68.928 136.74 65.622 158.07 69.03 161.34C71.028 163.248 72.756 162.192 73.83 160.998C74.2236 160.553 74.5199 160.031 74.6997 159.464C74.8795 158.898 74.9389 158.301 74.874 157.71L72.552 135.858C72.552 135.858 70.272 134.508 68.928 136.74Z" fill="#E8BFBF"/>
<path d="M104.448 156C105.806 154.815 106.779 153.253 107.244 151.512C107.35 150.898 107.39 150.275 107.364 149.652C107.334 145.788 106.242 138.702 106.242 138.702L103.104 137.664C103.104 137.664 102.126 143.064 101.904 146.016C101.862 146.616 101.796 147.282 101.724 148.008C101.586 149.328 101.418 150.78 101.268 151.986L104.448 156Z" fill="#E8BFBF"/>
<path d="M106.242 158.262C107.208 157.38 107.37 156.312 107.868 154.062C108.342 151.914 107.808 149.262 107.364 149.664C107.309 149.715 107.267 149.779 107.244 149.85C106.482 151.65 103.518 150.072 102.678 149.172C102.316 148.828 101.998 148.441 101.73 148.02C101.62 147.859 101.561 147.669 101.561 147.474C101.561 147.279 101.62 147.089 101.73 146.928C100.818 146.55 100.086 150.138 100.53 151.02L100.758 151.686C101.119 152.767 101.677 153.771 102.402 154.65L104.052 156.636L106.242 158.262Z" fill="#263238"/>
<path d="M103.02 138.114L102.648 132.63C103.618 133.092 104.621 133.483 105.648 133.8C107.172 134.322 109.248 133.404 108.768 134.4C108.003 135.882 107.149 137.316 106.212 138.696L103.02 138.114Z" fill="#E8BFBF"/>
<path d="M102.648 132.63L105 127.14L108.072 129.018C108.918 130.854 108.816 134.418 108.816 134.418C108.816 134.418 104.544 134.586 102.648 132.63Z" fill="#E8BFBF"/>
<path d="M82.386 128.4C82.464 128.79 82.746 129.066 82.986 129C83.226 128.934 83.376 128.586 83.292 128.196C83.208 127.806 82.932 127.53 82.692 127.596C82.452 127.662 82.302 128.034 82.386 128.4Z" fill="#263238"/>
<path d="M74.778 202.95L72.924 175.95C72.654 172.134 70.8 168.954 68.22 167.448C66.5868 166.148 64.5966 165.376 62.514 165.234C62.292 165.234 62.076 165.234 61.854 165.234C60.1786 165.225 58.5279 165.637 57.054 166.434C57.0058 166.451 56.9595 166.473 56.916 166.5C55.3981 167.35 54.0932 168.534 53.1 169.962C51.6015 172.139 50.8058 174.723 50.82 177.366C50.82 183.366 54.774 188.37 59.964 189.366L61.968 218.604C62.142 221.094 63.768 222.996 65.736 222.996H75.798L74.778 202.95Z" fill="#0A3CB1"/>
<path opacity="0.1" d="M74.778 202.95L72.924 175.95C72.654 172.134 70.8 168.954 68.22 167.448C66.5868 166.148 64.5966 165.376 62.514 165.234C62.292 165.234 62.076 165.234 61.854 165.234C60.1786 165.225 58.5279 165.637 57.054 166.434C57.0058 166.451 56.9595 166.473 56.916 166.5C55.3981 167.35 54.0932 168.534 53.1 169.962C51.6015 172.139 50.8058 174.723 50.82 177.366C50.82 183.366 54.774 188.37 59.964 189.366L61.968 218.604C62.142 221.094 63.768 222.996 65.736 222.996H75.798L74.778 202.95Z" fill="white"/>
<path d="M146.496 252.282C157.61 252.282 166.62 249.977 166.62 247.134C166.62 244.291 157.61 241.986 146.496 241.986C135.382 241.986 126.372 244.291 126.372 247.134C126.372 249.977 135.382 252.282 146.496 252.282Z" fill="#263238"/>
<path opacity="0.3" d="M146.496 250.566C157.61 250.566 166.62 248.645 166.62 246.276C166.62 243.907 157.61 241.986 146.496 241.986C135.382 241.986 126.372 243.907 126.372 246.276C126.372 248.645 135.382 250.566 146.496 250.566Z" fill="white"/>
<path d="M148.158 246.27H144.834L140.994 204.858H151.998L148.158 246.27Z" fill="#263238"/>
<path d="M151.998 204.858C151.998 206.058 149.538 207.042 146.496 207.042C143.454 207.042 140.994 206.064 140.994 204.858C140.994 203.652 143.46 202.674 146.496 202.674C149.532 202.674 151.998 203.652 151.998 204.858Z" fill="#263238"/>
<path opacity="0.7" d="M151.998 204.858C151.998 206.058 149.538 207.042 146.496 207.042C143.454 207.042 140.994 206.064 140.994 204.858C140.994 203.652 143.46 202.674 146.496 202.674C149.532 202.674 151.998 203.652 151.998 204.858Z" fill="white"/>
<path opacity="0.7" d="M79.2 205.506C79.2151 205.258 79.2796 205.016 79.3899 204.793C79.5001 204.57 79.6539 204.372 79.842 204.21C84.492 208.89 113.994 212.496 149.694 212.496C185.394 212.496 214.896 208.896 219.552 204.21C219.74 204.372 219.894 204.57 220.004 204.793C220.114 205.016 220.179 205.258 220.194 205.506C220.194 210.792 188.628 215.106 149.694 215.106C110.76 215.106 79.2 210.792 79.2 205.506Z" fill="white"/>
<path opacity="0.7" d="M79.866 206.7C84.516 202.02 114.018 198.42 149.718 198.42C185.418 198.42 214.92 202.02 219.576 206.7C214.92 211.38 185.418 214.986 149.718 214.986C114.018 214.986 84.516 211.38 79.866 206.7Z" fill="white"/>
<path opacity="0.7" d="M79.2 205.32C79.2 200.028 110.76 195.72 149.694 195.72C188.628 195.72 220.194 200.004 220.194 205.32C220.18 205.567 220.115 205.809 220.005 206.031C219.895 206.252 219.74 206.449 219.552 206.61C214.896 201.93 185.394 198.33 149.694 198.33C113.994 198.33 84.492 201.93 79.842 206.61C79.6535 206.449 79.4995 206.252 79.3892 206.031C79.2788 205.809 79.2145 205.567 79.2 205.32Z" fill="white"/>
<path d="M176.91 200.658L147.414 200.1C147.334 200.092 147.257 200.068 147.187 200.029C147.117 199.991 147.055 199.939 147.006 199.876C146.956 199.814 146.919 199.742 146.898 199.665C146.876 199.588 146.87 199.507 146.88 199.428C146.873 199.348 146.883 199.268 146.908 199.192C146.933 199.116 146.973 199.046 147.025 198.985C147.078 198.925 147.142 198.876 147.214 198.84C147.286 198.805 147.364 198.785 147.444 198.78L176.94 199.338C177.02 199.345 177.098 199.369 177.169 199.407C177.24 199.445 177.302 199.497 177.352 199.56C177.403 199.622 177.44 199.695 177.462 199.772C177.484 199.849 177.49 199.93 177.48 200.01C177.487 200.09 177.477 200.171 177.452 200.248C177.426 200.324 177.386 200.394 177.333 200.455C177.279 200.515 177.214 200.565 177.142 200.599C177.069 200.634 176.99 200.654 176.91 200.658Z" fill="#263238"/>
<path opacity="0.2" d="M176.91 200.658L147.414 200.1C147.334 200.092 147.257 200.068 147.187 200.029C147.117 199.991 147.055 199.939 147.006 199.876C146.956 199.814 146.919 199.742 146.898 199.665C146.876 199.588 146.87 199.507 146.88 199.428C146.873 199.348 146.883 199.268 146.908 199.192C146.933 199.116 146.973 199.046 147.025 198.985C147.078 198.925 147.142 198.876 147.214 198.84C147.286 198.805 147.364 198.785 147.444 198.78L176.94 199.338C177.02 199.345 177.098 199.369 177.169 199.407C177.24 199.445 177.302 199.497 177.352 199.56C177.403 199.622 177.44 199.695 177.462 199.772C177.484 199.849 177.49 199.93 177.48 200.01C177.487 200.09 177.477 200.171 177.452 200.248C177.426 200.324 177.386 200.394 177.333 200.455C177.279 200.515 177.214 200.565 177.142 200.599C177.069 200.634 176.99 200.654 176.91 200.658Z" fill="white"/>
<path d="M191.232 198.504L177.132 200.634C176.978 200.634 176.83 200.575 176.718 200.469C176.606 200.363 176.54 200.218 176.532 200.064C176.507 199.903 176.544 199.738 176.633 199.602C176.723 199.465 176.86 199.367 177.018 199.326L191.118 197.196C191.272 197.196 191.42 197.255 191.532 197.361C191.644 197.467 191.71 197.612 191.718 197.766C191.743 197.927 191.706 198.092 191.617 198.228C191.527 198.365 191.39 198.463 191.232 198.504Z" fill="#263238"/>
<path d="M191.106 197.196H161.298L147.444 198.78L176.136 199.32L191.106 197.196Z" fill="#263238"/>
<path opacity="0.6" d="M191.106 197.196H161.298L147.444 198.78L176.136 199.32L191.106 197.196Z" fill="white"/>
<path opacity="0.5" d="M191.232 198.504L177.132 200.634C176.978 200.634 176.83 200.575 176.718 200.469C176.606 200.363 176.54 200.218 176.532 200.064C176.507 199.903 176.544 199.738 176.633 199.602C176.723 199.465 176.86 199.367 177.018 199.326L191.118 197.196C191.272 197.196 191.42 197.255 191.532 197.361C191.644 197.467 191.71 197.612 191.718 197.766C191.743 197.927 191.706 198.092 191.617 198.228C191.527 198.365 191.39 198.463 191.232 198.504Z" fill="white"/>
<path d="M176.136 199.32L148.632 198.804C148.113 198.738 147.637 198.484 147.293 198.09C146.949 197.697 146.762 197.191 146.766 196.668L145.938 180.06C145.878 178.902 146.628 177.972 147.594 177.99L175.098 178.512C175.618 178.576 176.095 178.829 176.44 179.223C176.784 179.617 176.971 180.125 176.964 180.648L177.798 197.25C177.852 198.408 177.108 199.338 176.136 199.32Z" fill="#0A3CB1"/>
<path opacity="0.2" d="M176.136 199.32L148.632 198.804C148.113 198.738 147.637 198.484 147.293 198.09C146.949 197.697 146.762 197.191 146.766 196.668L145.938 180.06C145.878 178.902 146.628 177.972 147.594 177.99L175.098 178.512C175.618 178.576 176.095 178.829 176.44 179.223C176.784 179.617 176.971 180.125 176.964 180.648L177.798 197.25C177.852 198.408 177.108 199.338 176.136 199.32Z" fill="white"/>
<path d="M175.332 199.236L147.828 198.714C147.308 198.649 146.831 198.396 146.486 198.002C146.14 197.608 145.952 197.102 145.956 196.578L145.128 180C145.068 178.842 145.818 177.912 146.79 177.93L174.288 178.446C174.808 178.511 175.285 178.764 175.63 179.158C175.976 179.552 176.164 180.058 176.16 180.582L177 197.166C177.048 198.324 176.298 199.254 175.332 199.236Z" fill="#0A3CB1"/>
<path opacity="0.6" d="M175.332 199.236L147.828 198.714C147.308 198.649 146.831 198.396 146.486 198.002C146.14 197.608 145.952 197.102 145.956 196.578L145.128 180C145.068 178.842 145.818 177.912 146.79 177.93L174.288 178.446C174.808 178.511 175.285 178.764 175.63 179.158C175.976 179.552 176.164 180.058 176.16 180.582L177 197.166C177.048 198.324 176.298 199.254 175.332 199.236Z" fill="white"/>
<path d="M157.416 188.298C157.497 189.088 157.864 189.821 158.449 190.359C159.034 190.896 159.796 191.201 160.59 191.214C160.963 191.22 161.334 191.147 161.677 191C162.02 190.852 162.328 190.633 162.58 190.357C162.832 190.081 163.022 189.755 163.138 189.4C163.255 189.045 163.294 188.669 163.254 188.298C163.167 187.512 162.797 186.785 162.213 186.251C161.629 185.718 160.871 185.416 160.08 185.4C159.708 185.394 159.339 185.467 158.998 185.613C158.656 185.76 158.349 185.977 158.098 186.251C157.846 186.525 157.655 186.849 157.538 187.202C157.42 187.554 157.379 187.928 157.416 188.298Z" fill="white"/>
</svg>
