<svg width="300" height="300" viewBox="0 0 300 300" fill="none" xmlns="http://www.w3.org/2000/svg">
<path d="M80.676 142.644C115.8 178.86 161.958 204 204.744 163.422C226.8 142.518 255.948 86.064 227.184 60.222C187.542 24.618 164.784 82.872 135.162 90.768C114.846 96.168 97.764 64.968 73.446 85.812C54.222 102.282 66.072 127.59 80.676 142.644Z" fill="#D53669"/>
<path opacity="0.9" d="M80.676 142.644C115.8 178.86 161.958 204 204.744 163.422C226.8 142.518 255.948 86.064 227.184 60.222C187.542 24.618 164.784 82.872 135.162 90.768C114.846 96.168 97.764 64.968 73.446 85.812C54.222 102.282 66.072 127.59 80.676 142.644Z" fill="white"/>
<path d="M150 256.536C214.249 256.536 266.334 253.495 266.334 249.744C266.334 245.993 214.249 242.952 150 242.952C85.7505 242.952 33.666 245.993 33.666 249.744C33.666 253.495 85.7505 256.536 150 256.536Z" fill="#F5F5F5"/>
<path d="M209.55 98.058L203.598 95.658C203.598 95.658 195.744 109.98 193.494 110.706C190.434 111.69 184.098 114.426 180.342 114.906C179.832 115.506 178.998 117.372 179.076 118.05C184.122 119.736 195.21 117.498 197.586 115.734C202.992 111.732 209.55 98.058 209.55 98.058Z" fill="#E58A7B"/>
<path d="M211.38 94.8C212.49 98.898 206.478 107.142 206.478 107.142L198.6 102.726C198.6 102.726 200.076 99.336 201.876 95.886C204.762 90.312 210.114 90.126 211.38 94.8Z" fill="#D53669"/>
<path opacity="0.2" d="M211.38 94.8C212.49 98.898 206.478 107.142 206.478 107.142L198.6 102.726C198.6 102.726 200.076 99.336 201.876 95.886C204.762 90.312 210.114 90.126 211.38 94.8Z" fill="#102962"/>
<path opacity="0.2" d="M201.726 104.49L204.828 106.23L205.374 96.708C203.568 98.094 202.296 102.27 201.726 104.49Z" fill="#102962"/>
<path d="M206.196 91.716C206.196 91.716 200.064 105.36 203.64 130.764H227.802C228.186 127.056 226.914 108.96 231.516 91.488C228.865 90.97 226.184 90.6273 223.488 90.462C220.069 90.2639 216.641 90.2639 213.222 90.462C210.852 90.7027 208.503 91.1219 206.196 91.716Z" fill="#D53669"/>
<path opacity="0.2" d="M206.196 91.716C206.196 91.716 200.064 105.36 203.64 130.764H227.802C228.186 127.056 226.914 108.96 231.516 91.488C228.865 90.97 226.184 90.6273 223.488 90.462C220.069 90.2639 216.641 90.2639 213.222 90.462C210.852 90.7027 208.503 91.1219 206.196 91.716Z" fill="#102962"/>
<g style="mix-blend-mode:multiply">
<path d="M200.592 250.284C200.556 250.932 209.718 251.454 221.052 251.454C232.386 251.454 241.614 250.932 241.65 250.284C241.686 249.636 232.53 249.12 221.19 249.12C209.85 249.12 200.634 249.642 200.592 250.284Z" fill="#E8ECF1"/>
</g>
<path d="M216.72 233.258L212.435 234.917L216.126 244.453L220.412 242.794L216.72 233.258Z" fill="#E58A7B"/>
<path d="M235.83 245.67H231.312L229.656 235.212H234.174L235.83 245.67Z" fill="#E58A7B"/>
<path d="M231 245.148H236.076C236.164 245.148 236.249 245.18 236.316 245.237C236.383 245.294 236.428 245.373 236.442 245.46L237.096 249.474C237.11 249.575 237.102 249.677 237.072 249.775C237.043 249.872 236.993 249.962 236.926 250.038C236.859 250.114 236.776 250.175 236.683 250.217C236.59 250.258 236.49 250.279 236.388 250.278C234.618 250.248 233.766 250.14 231.534 250.14C230.16 250.14 227.334 250.284 225.426 250.284C223.518 250.284 223.392 248.412 224.178 248.238C227.706 247.476 229.074 246.438 230.25 245.43C230.457 245.248 230.724 245.148 231 245.148Z" fill="#263238"/>
<path d="M216 243.6L220.8 242.196C220.886 242.172 220.977 242.178 221.059 242.213C221.141 242.248 221.208 242.309 221.25 242.388L223.05 245.988C223.092 246.079 223.113 246.179 223.113 246.279C223.112 246.38 223.089 246.479 223.047 246.57C223.004 246.66 222.942 246.741 222.864 246.805C222.787 246.869 222.697 246.916 222.6 246.942C220.854 247.422 219.684 247.716 217.5 248.352C215.994 248.79 214.458 249.504 212.97 249.978C211.938 250.308 209.514 250.32 208.26 250.32C206.406 250.32 205.992 248.364 206.79 248.274C208.8 248.052 209.07 248.154 210.18 247.596C211.996 246.802 213.642 245.665 215.028 244.248C215.289 243.95 215.625 243.727 216 243.6Z" fill="#263238"/>
<path d="M181.098 114.882L176.13 112.8L174.084 118.308C176.12 118.618 178.192 118.618 180.228 118.308L181.098 114.882Z" fill="#E58A7B"/>
<path d="M172.434 112.656L172.302 116.316L174.084 118.296L176.13 112.788L172.434 112.656Z" fill="#E58A7B"/>
<path d="M217.308 234.067L213.009 235.727L214.913 240.658L219.212 238.999L217.308 234.067Z" fill="#CF6F64"/>
<path d="M234.174 235.212H229.656L230.514 240.606H235.032L234.174 235.212Z" fill="#CF6F64"/>
<path opacity="0.2" d="M202.872 123.894C202.962 124.98 203.064 126.09 203.196 127.23L221.16 121.398C223.965 120.567 226.403 118.804 228.072 116.4C228.144 114.798 228.234 113.112 228.372 111.354C228.432 110.502 228.504 109.626 228.582 108.738C228.66 107.85 228.768 106.866 228.882 105.918L202.872 123.894Z" fill="#102962"/>
<path d="M208.74 104.214L208.14 104.142C208.494 101.142 210.732 98.778 213.09 98.838V99.438C211.026 99.396 209.058 101.526 208.74 104.214Z" fill="white"/>
<path d="M211.938 109.752H211.836V109.152C213.9 109.23 215.838 107.076 216.156 104.394L216.756 104.466C216.438 107.4 214.272 109.752 211.938 109.752Z" fill="white"/>
<path d="M223.152 78.9C222.306 82.206 221.31 88.26 223.488 90.462C223.488 90.462 221.964 93.816 215.826 93.816C210.216 93.816 213.222 90.462 213.222 90.462C216.954 89.586 217.02 86.862 216.528 84.282L223.152 78.9Z" fill="#E58A7B"/>
<path d="M220.452 81.096L216.534 84.282C216.655 84.8749 216.726 85.4771 216.744 86.082C217.89 87.222 220.188 84.336 220.422 82.86C220.541 82.2789 220.551 81.6808 220.452 81.096Z" fill="#CF6F64"/>
<path d="M209.796 78.858C210.069 79.3305 210.436 79.7417 210.875 80.0659C211.313 80.3901 211.814 80.6202 212.346 80.742C213.786 81.06 214.506 79.734 214.11 78.402C213.756 77.202 212.574 75.588 211.11 75.864C210.796 75.9286 210.503 76.0674 210.254 76.2688C210.005 76.4702 209.808 76.7283 209.679 77.0214C209.551 77.3146 209.494 77.6344 209.514 77.9539C209.535 78.2735 209.631 78.5835 209.796 78.858Z" fill="#CF6F64"/>
<path d="M212.178 68.28C209.934 69.306 209.142 78.222 211.962 79.542C214.782 80.862 216.426 66.33 212.178 68.28Z" fill="#263238"/>
<path d="M223.836 73.926C223.296 78.402 223.236 81.036 220.836 83.328C220.092 84.0886 219.153 84.6289 218.121 84.8892C217.09 85.1495 216.007 85.1197 214.991 84.8031C213.976 84.4865 213.067 83.8955 212.367 83.0952C211.666 82.2949 211.2 81.3165 211.02 80.268C210.294 76.248 211.296 69.606 215.784 67.824C216.727 67.4081 217.764 67.2519 218.788 67.3718C219.811 67.4916 220.784 67.8831 221.606 68.5055C222.427 69.128 223.067 69.9589 223.459 70.912C223.851 71.8651 223.981 72.9057 223.836 73.926Z" fill="#E58A7B"/>
<path d="M216.462 70.596C219.786 69.75 222.228 69.174 221.352 71.94C220.194 75.636 218.802 79.212 220.668 79.374C221.808 79.476 226.848 77.34 226.206 75.174C225.648 73.29 228.006 72.774 228.426 71.82C229.98 68.364 225.534 68.82 226.326 66.72C227.118 64.62 222.726 61.236 220.326 62.922C216.42 65.646 209.718 65.604 213.24 61.122C215.766 57.924 211.26 58.578 211.26 58.578C211.26 58.578 213.984 60.192 209.4 62.688C204.552 65.352 208.998 72.51 216.462 70.596Z" fill="#263238"/>
<path d="M225.6 78.858C224.944 79.8075 223.958 80.4791 222.834 80.742C221.352 81.06 220.782 79.734 221.34 78.402C221.838 77.202 223.206 75.588 224.622 75.864C226.038 76.14 226.362 77.682 225.6 78.858Z" fill="#E58A7B"/>
<path d="M203.64 130.764C203.64 130.764 199.584 167.064 199.266 180.84C198.942 195.168 213.012 239.874 213.012 239.874L220.212 236.874C220.212 236.874 211.812 196.026 213.012 181.956C214.284 166.614 219.54 130.788 219.54 130.788L203.64 130.764Z" fill="#D53669"/>
<path opacity="0.2" d="M213.72 140.73C210.486 147.438 212.664 160.704 214.416 168.564C215.082 163.014 215.874 156.99 216.624 151.416C216.552 142.848 215.886 136.23 213.72 140.73Z" fill="#102962"/>
<path d="M219.894 234.498C219.93 234.498 220.746 236.79 220.746 236.79L212.442 240.282L211.134 237.846L219.894 234.498Z" fill="#D53669"/>
<path d="M212.214 130.764C212.214 130.764 215.316 165.288 217.368 178.218C219.624 192.384 228.468 239.562 228.468 239.562H236.742C236.742 239.562 231.786 193.53 230.85 179.502C229.83 164.286 227.802 130.764 227.802 130.764H212.214Z" fill="#D53669"/>
<path d="M236.868 237.408C236.904 237.408 237.144 239.718 237.144 239.718H228.048L227.4 237.066L236.868 237.408Z" fill="#D53669"/>
<path opacity="0.2" d="M233.7 234.672C233.681 234.672 233.663 234.666 233.649 234.654C233.634 234.641 233.625 234.625 233.622 234.606C233.574 234.186 229.104 192.606 228.264 180.006C227.352 166.338 225.516 136.02 225.498 135.714C225.497 135.704 225.498 135.694 225.502 135.685C225.505 135.675 225.51 135.666 225.517 135.659C225.524 135.652 225.532 135.646 225.541 135.642C225.55 135.638 225.56 135.636 225.57 135.636C225.59 135.636 225.609 135.643 225.623 135.657C225.638 135.67 225.646 135.688 225.648 135.708C225.648 136.014 227.502 166.308 228.414 180C229.254 192.6 233.724 234.15 233.766 234.6C233.768 234.61 233.767 234.62 233.765 234.63C233.762 234.64 233.758 234.649 233.752 234.657C233.745 234.665 233.738 234.671 233.729 234.676C233.72 234.681 233.71 234.683 233.7 234.684V234.672Z" fill="#102962"/>
<path d="M216.972 75.174C216.972 75.54 216.744 75.834 216.504 75.834C216.264 75.834 216.09 75.54 216.114 75.174C216.138 74.808 216.342 74.514 216.582 74.514C216.822 74.514 216.996 74.814 216.972 75.174Z" fill="#263238"/>
<path d="M212.856 75.174C212.856 75.54 212.622 75.834 212.388 75.834C212.154 75.834 211.974 75.54 211.992 75.174C212.01 74.808 212.226 74.514 212.466 74.514C212.706 74.514 212.88 74.814 212.856 75.174Z" fill="#263238"/>
<path d="M214.152 75.36C213.651 76.4776 213.006 77.5246 212.232 78.474C212.832 79.074 213.954 78.798 213.954 78.798L214.152 75.36Z" fill="#DF5753"/>
<path d="M214.26 80.328C214.246 80.328 214.232 80.3252 214.22 80.3197C214.207 80.3142 214.195 80.3062 214.186 80.296C214.176 80.2859 214.169 80.274 214.164 80.2609C214.159 80.2478 214.157 80.2339 214.158 80.22C214.16 80.1908 214.172 80.1634 214.193 80.1433C214.215 80.1232 214.243 80.112 214.272 80.112C214.731 80.1152 215.185 80.0155 215.6 79.8203C216.015 79.6251 216.382 79.3394 216.672 78.984C216.693 78.9659 216.719 78.9559 216.747 78.9559C216.775 78.9559 216.801 78.9659 216.822 78.984C216.841 79.0041 216.852 79.031 216.852 79.059C216.852 79.087 216.841 79.1139 216.822 79.134C216.511 79.5117 216.12 79.8149 215.676 80.0215C215.233 80.2282 214.749 80.3329 214.26 80.328Z" fill="#263238"/>
<path d="M217.704 74.07C217.675 74.0848 217.643 74.0924 217.611 74.0924C217.579 74.0924 217.547 74.0848 217.518 74.07C217.294 73.9249 217.038 73.8346 216.772 73.8065C216.507 73.7784 216.238 73.8131 215.988 73.908C215.964 73.9202 215.937 73.9274 215.91 73.9291C215.883 73.9309 215.855 73.9272 215.83 73.9182C215.804 73.9093 215.78 73.8953 215.76 73.877C215.74 73.8588 215.724 73.8367 215.712 73.812C215.69 73.7586 215.689 73.6986 215.71 73.6448C215.732 73.5911 215.773 73.5477 215.826 73.524C216.14 73.3959 216.48 73.3454 216.817 73.3767C217.154 73.408 217.479 73.5203 217.764 73.704C217.787 73.7196 217.807 73.7397 217.822 73.763C217.837 73.7863 217.847 73.8124 217.852 73.8397C217.857 73.8671 217.857 73.8952 217.851 73.9223C217.845 73.9495 217.834 73.9752 217.818 73.998C217.788 74.0324 217.748 74.0574 217.704 74.07Z" fill="#263238"/>
<path d="M211.266 72.87C211.234 72.8622 211.205 72.8456 211.182 72.822C211.162 72.8024 211.146 72.7791 211.135 72.7533C211.125 72.7276 211.119 72.6999 211.119 72.672C211.119 72.644 211.125 72.6164 211.135 72.5906C211.146 72.5649 211.162 72.5415 211.182 72.522C211.412 72.2641 211.698 72.0627 212.019 71.9337C212.339 71.8046 212.685 71.7513 213.03 71.778C213.058 71.7822 213.084 71.7921 213.108 71.807C213.131 71.8219 213.152 71.8415 213.167 71.8645C213.183 71.8876 213.194 71.9137 213.199 71.9411C213.205 71.9685 213.204 71.9967 213.198 72.024C213.185 72.0795 213.152 72.1285 213.106 72.1616C213.06 72.1948 213.003 72.2098 212.946 72.204C212.673 72.1868 212.4 72.2319 212.148 72.3359C211.895 72.4398 211.67 72.5999 211.488 72.804C211.461 72.8343 211.425 72.8566 211.386 72.8682C211.347 72.8799 211.305 72.8805 211.266 72.87Z" fill="#263238"/>
<path d="M233.838 97.392L227.598 95.73C227.598 95.73 221.478 110.796 219.312 111.774C216.372 113.118 208.926 117.774 205.758 119.976C205.584 120.726 205.722 122.712 206.118 123.258C211.518 122.274 221.856 118.296 224.016 116.274C228.942 111.66 233.838 97.392 233.838 97.392Z" fill="#E58A7B"/>
<path d="M229.482 245.94C229.178 245.964 228.874 245.881 228.624 245.706C228.547 245.636 228.489 245.548 228.456 245.449C228.424 245.35 228.417 245.244 228.438 245.142C228.442 245.078 228.463 245.017 228.499 244.964C228.535 244.911 228.584 244.869 228.642 244.842C229.146 244.584 230.556 245.478 230.718 245.58C230.736 245.591 230.75 245.607 230.757 245.627C230.765 245.646 230.766 245.668 230.76 245.688C230.755 245.709 230.744 245.728 230.73 245.744C230.715 245.76 230.697 245.771 230.676 245.778C230.285 245.874 229.885 245.928 229.482 245.94ZM228.882 245.004C228.837 244.994 228.789 244.994 228.744 245.004C228.721 245.016 228.702 245.034 228.689 245.056C228.676 245.079 228.67 245.104 228.672 245.13C228.656 245.2 228.659 245.273 228.68 245.341C228.701 245.41 228.74 245.471 228.792 245.52C229.026 245.73 229.614 245.754 230.388 245.604C229.927 245.3 229.408 245.096 228.864 245.004H228.882Z" fill="#D53669"/>
<path d="M230.646 245.778C230.63 245.783 230.614 245.783 230.598 245.778C230.148 245.526 229.302 244.536 229.428 244.032C229.447 243.952 229.492 243.881 229.556 243.83C229.62 243.779 229.7 243.75 229.782 243.75C229.863 243.739 229.944 243.746 230.022 243.77C230.1 243.794 230.171 243.834 230.232 243.888C230.73 244.314 230.76 245.622 230.76 245.688C230.763 245.708 230.759 245.728 230.749 245.745C230.74 245.763 230.724 245.776 230.706 245.784C230.686 245.788 230.665 245.786 230.646 245.778ZM229.842 243.948H229.8C229.662 243.948 229.644 244.026 229.638 244.056C229.566 244.35 230.1 245.1 230.544 245.454C230.542 244.947 230.385 244.453 230.094 244.038C230.024 243.977 229.934 243.945 229.842 243.948Z" fill="#D53669"/>
<path d="M213.552 245.19C213.185 245.318 212.785 245.318 212.418 245.19C212.335 245.145 212.264 245.079 212.213 245C212.161 244.92 212.131 244.829 212.124 244.734C212.116 244.675 212.124 244.614 212.146 244.559C212.168 244.503 212.204 244.454 212.25 244.416C212.73 243.984 214.692 244.416 214.914 244.5C214.935 244.506 214.954 244.518 214.967 244.535C214.98 244.553 214.987 244.574 214.986 244.596C214.987 244.619 214.981 244.641 214.969 244.66C214.958 244.679 214.94 244.695 214.92 244.704C214.478 244.904 214.021 245.066 213.552 245.19ZM212.574 244.476C212.505 244.49 212.441 244.521 212.388 244.566C212.369 244.58 212.354 244.6 212.346 244.622C212.337 244.644 212.335 244.669 212.34 244.692C212.344 244.755 212.364 244.816 212.397 244.87C212.431 244.923 212.477 244.967 212.532 244.998C212.85 245.166 213.588 245.034 214.542 244.632C213.899 244.47 213.234 244.417 212.574 244.476Z" fill="#D53669"/>
<path d="M214.902 244.704H214.854C214.254 244.596 213.054 243.906 213.018 243.39C213.018 243.27 213.072 243.102 213.36 243.006C213.457 242.971 213.561 242.957 213.664 242.963C213.767 242.969 213.868 242.996 213.96 243.042C214.608 243.36 214.95 244.512 214.968 244.566C214.972 244.584 214.972 244.603 214.966 244.621C214.961 244.639 214.951 244.655 214.938 244.668C214.929 244.683 214.917 244.695 214.902 244.704ZM213.48 243.186H213.42C213.234 243.252 213.234 243.33 213.234 243.354C213.234 243.666 214.104 244.236 214.71 244.428C214.57 243.946 214.275 243.524 213.87 243.228C213.75 243.167 213.611 243.152 213.48 243.186Z" fill="#D53669"/>
<path d="M206.268 119.622L200.01 122.502L199.284 124.302L201.594 125.856C201.594 125.856 205.914 125.388 207.144 122.61L206.268 119.622Z" fill="#E58A7B"/>
<path d="M206.532 123.36C206.392 122.158 205.995 120.999 205.368 119.964L206.358 119.22C207.103 120.413 207.578 121.754 207.75 123.15L206.532 123.36Z" fill="#263238"/>
<path d="M207.6 120.474C207.732 120.682 207.797 120.926 207.786 121.172C207.775 121.419 207.688 121.655 207.538 121.851C207.387 122.046 207.18 122.19 206.945 122.263C206.709 122.337 206.457 122.336 206.222 122.261C205.987 122.186 205.781 122.04 205.632 121.844C205.483 121.648 205.398 121.41 205.388 121.164C205.379 120.917 205.446 120.674 205.579 120.467C205.713 120.26 205.907 120.099 206.136 120.006C206.392 119.875 206.69 119.851 206.964 119.939C207.238 120.026 207.467 120.219 207.6 120.474Z" fill="#263238"/>
<path d="M195.78 124.83L196.614 125.67L202.23 123.27L200.01 122.502L195.78 124.83Z" fill="#E58A7B"/>
<path opacity="0.2" d="M219.894 234.498C219.93 234.498 220.746 236.79 220.746 236.79L212.442 240.282L211.134 237.846L219.894 234.498Z" fill="#102962"/>
<path opacity="0.2" d="M236.868 237.408C236.904 237.408 237.144 239.718 237.144 239.718H228.048L227.4 237.066L236.868 237.408Z" fill="#102962"/>
<path d="M235.464 95.664C237.114 100.986 230.664 108.264 230.664 108.264L221.754 104.628C222.81 101.552 224.028 98.5338 225.402 95.586C228.138 89.688 233.796 90.294 235.464 95.664Z" fill="#D53669"/>
<path opacity="0.2" d="M235.464 95.664C237.114 100.986 230.664 108.264 230.664 108.264L221.754 104.628C222.81 101.552 224.028 98.5338 225.402 95.586C228.138 89.688 233.796 90.294 235.464 95.664Z" fill="#102962"/>
<path d="M146.928 42.342H143.094V42.96H146.928V42.342Z" fill="#D53669"/>
<path d="M196.559 66.8019L196.095 77.0994L196.712 77.1272L197.176 66.8297L196.559 66.8019Z" fill="#D53669"/>
<path d="M195.366 45.114H124.566L117.978 192.546H188.778L195.366 45.114Z" fill="#D53669"/>
<path opacity="0.56" d="M193.254 47.142H122.454L115.866 194.574H186.666L193.254 47.142Z" fill="#FAFAFA"/>
<path opacity="0.07" d="M191.142 49.164H120.342L113.748 196.596H184.548L191.142 49.164Z" fill="#D53669"/>
<path d="M183.084 113.466H122.652L122.148 124.746H182.58L183.084 113.466Z" fill="white"/>
<path d="M155.886 105.234H123.018L122.796 110.28H155.664L155.886 105.234Z" fill="#D53669"/>
<path d="M181.722 143.91H121.29L120.786 155.19H181.218L181.722 143.91Z" fill="white"/>
<path opacity="0.47" d="M170.64 170.424H130.002L129.396 183.942H170.034L170.64 170.424Z" fill="#D53669"/>
<path d="M167.922 186.042H127.284C127.266 186.047 127.248 186.047 127.23 186.042C127.224 186.024 127.224 186.005 127.23 185.988L127.83 172.464C127.83 172.455 127.832 172.446 127.836 172.437C127.839 172.429 127.845 172.421 127.851 172.415C127.858 172.409 127.866 172.404 127.875 172.401C127.884 172.398 127.893 172.397 127.902 172.398H168.54C168.547 172.394 168.556 172.392 168.564 172.392C168.572 172.392 168.581 172.394 168.588 172.398C168.592 172.405 168.594 172.414 168.594 172.422C168.594 172.43 168.592 172.439 168.588 172.446L168 186C167.993 186.014 167.981 186.026 167.968 186.033C167.954 186.041 167.938 186.044 167.922 186.042ZM127.356 185.898H167.85L168.45 172.518H127.956L127.356 185.898Z" fill="white"/>
<path d="M148.788 135.678H121.656L121.434 140.73H148.56L148.788 135.678Z" fill="#D53669"/>
<path d="M169.866 77.028C169.711 80.3108 168.544 83.4651 166.524 86.058C165.029 88.0164 163.105 89.6064 160.9 90.7058C158.695 91.8051 156.268 92.3847 153.804 92.4C151.813 92.4151 149.84 92.0225 148.006 91.2463C146.173 90.4701 144.518 89.3268 143.143 87.8866C141.768 86.4465 140.702 84.7402 140.012 82.8727C139.322 81.0052 139.021 79.0161 139.128 77.028C139.339 72.9024 141.118 69.0132 144.102 66.1559C147.085 63.2985 151.047 61.6888 155.178 61.656C157.171 61.6374 159.146 62.0276 160.981 62.8025C162.817 63.5773 164.475 64.7204 165.851 66.1611C167.228 67.6017 168.294 69.3093 168.985 71.1784C169.675 73.0475 169.975 75.0384 169.866 77.028Z" fill="white"/>
<path d="M171.312 64.872C171.273 65.7449 170.962 66.5838 170.424 67.272C170.026 67.7921 169.514 68.2144 168.927 68.5066C168.341 68.7988 167.695 68.9532 167.04 68.958C166.405 68.9618 165.779 68.8102 165.216 68.5163C164.654 68.2224 164.172 67.7952 163.812 67.272C163.336 66.565 163.1 65.7234 163.14 64.872C163.198 63.7766 163.672 62.7446 164.464 61.9865C165.257 61.2283 166.309 60.8011 167.406 60.792C167.935 60.7871 168.46 60.8907 168.947 61.0963C169.435 61.3019 169.875 61.6052 170.241 61.9874C170.607 62.3697 170.891 62.8228 171.075 63.3189C171.259 63.815 171.34 64.3435 171.312 64.872Z" fill="#D53669"/>
<path d="M129.162 119.106C129.133 119.589 128.922 120.044 128.571 120.378C128.221 120.712 127.756 120.901 127.272 120.906C127.038 120.909 126.806 120.864 126.591 120.773C126.375 120.683 126.18 120.549 126.018 120.38C125.856 120.212 125.73 120.011 125.649 119.792C125.567 119.573 125.532 119.34 125.544 119.106C125.57 118.621 125.78 118.165 126.132 117.831C126.483 117.496 126.949 117.308 127.434 117.306C127.668 117.304 127.899 117.35 128.114 117.441C128.33 117.531 128.524 117.665 128.686 117.834C128.848 118.002 128.973 118.202 129.055 118.421C129.137 118.639 129.173 118.873 129.162 119.106Z" fill="#263238"/>
<path d="M137.25 119.106C137.223 119.59 137.012 120.045 136.661 120.38C136.31 120.714 135.845 120.902 135.36 120.906C135.127 120.908 134.895 120.862 134.68 120.771C134.465 120.681 134.271 120.547 134.11 120.378C133.949 120.209 133.824 120.01 133.742 119.791C133.661 119.572 133.626 119.339 133.638 119.106C133.664 118.623 133.873 118.167 134.223 117.833C134.573 117.498 135.038 117.31 135.522 117.306C135.756 117.303 135.988 117.348 136.203 117.439C136.419 117.529 136.614 117.663 136.776 117.832C136.938 118 137.064 118.2 137.145 118.42C137.227 118.639 137.262 118.872 137.25 119.106Z" fill="#263238"/>
<path d="M145.344 119.106C145.317 119.59 145.106 120.045 144.755 120.38C144.404 120.714 143.939 120.902 143.454 120.906C143.22 120.908 142.989 120.862 142.774 120.771C142.558 120.681 142.364 120.547 142.202 120.378C142.04 120.21 141.915 120.01 141.833 119.791C141.751 119.573 141.715 119.339 141.726 119.106C141.753 118.622 141.964 118.167 142.315 117.832C142.666 117.498 143.131 117.31 143.616 117.306C143.85 117.303 144.082 117.348 144.297 117.439C144.513 117.529 144.708 117.663 144.87 117.832C145.032 118 145.158 118.2 145.239 118.42C145.321 118.639 145.356 118.872 145.344 119.106Z" fill="#263238"/>
<path d="M127.8 149.55C127.771 150.033 127.56 150.488 127.209 150.822C126.859 151.156 126.394 151.345 125.91 151.35C125.676 151.352 125.445 151.306 125.23 151.215C125.014 151.125 124.82 150.991 124.658 150.822C124.496 150.654 124.371 150.454 124.289 150.235C124.207 150.016 124.171 149.783 124.182 149.55C124.209 149.066 124.42 148.611 124.771 148.276C125.122 147.942 125.587 147.754 126.072 147.75C126.306 147.748 126.537 147.794 126.752 147.885C126.968 147.975 127.162 148.109 127.324 148.277C127.486 148.446 127.611 148.646 127.693 148.865C127.775 149.083 127.811 149.317 127.8 149.55Z" fill="#263238"/>
<path d="M135.888 149.55C135.861 150.033 135.651 150.487 135.301 150.822C134.951 151.156 134.488 151.345 134.004 151.35C133.77 151.353 133.538 151.308 133.323 151.217C133.107 151.127 132.912 150.993 132.75 150.824C132.588 150.656 132.462 150.455 132.381 150.236C132.299 150.017 132.264 149.783 132.276 149.55C132.303 149.066 132.514 148.611 132.865 148.276C133.216 147.942 133.681 147.754 134.166 147.75C134.399 147.748 134.631 147.794 134.846 147.885C135.061 147.975 135.255 148.109 135.416 148.278C135.577 148.446 135.702 148.646 135.784 148.865C135.865 149.084 135.9 149.317 135.888 149.55Z" fill="#263238"/>
<path d="M144 149.55C143.973 150.034 143.762 150.489 143.411 150.824C143.06 151.158 142.595 151.346 142.11 151.35C141.877 151.351 141.646 151.305 141.431 151.214C141.216 151.123 141.022 150.989 140.86 150.82C140.698 150.652 140.573 150.453 140.491 150.234C140.408 150.016 140.371 149.783 140.382 149.55C140.411 149.066 140.622 148.612 140.973 148.278C141.323 147.944 141.788 147.755 142.272 147.75C142.506 147.747 142.738 147.792 142.953 147.883C143.169 147.973 143.364 148.107 143.526 148.276C143.688 148.444 143.814 148.644 143.895 148.864C143.977 149.083 144.012 149.316 144 149.55Z" fill="#263238"/>
<path d="M152.076 149.55C152.047 150.033 151.836 150.488 151.485 150.822C151.135 151.156 150.67 151.345 150.186 151.35C149.953 151.351 149.722 151.305 149.507 151.214C149.292 151.123 149.098 150.989 148.936 150.82C148.774 150.652 148.649 150.453 148.567 150.234C148.484 150.016 148.447 149.783 148.458 149.55C148.487 149.066 148.698 148.612 149.049 148.278C149.399 147.944 149.864 147.755 150.348 147.75C150.582 147.748 150.813 147.794 151.028 147.885C151.244 147.975 151.438 148.109 151.6 148.277C151.762 148.446 151.887 148.646 151.969 148.865C152.051 149.083 152.087 149.317 152.076 149.55Z" fill="#263238"/>
<path d="M160.2 149.55C160.171 150.033 159.96 150.488 159.609 150.822C159.259 151.156 158.794 151.345 158.31 151.35C158.076 151.353 157.844 151.308 157.629 151.217C157.413 151.127 157.218 150.993 157.056 150.824C156.894 150.656 156.768 150.455 156.687 150.236C156.605 150.017 156.57 149.783 156.582 149.55C156.609 149.066 156.82 148.611 157.171 148.276C157.522 147.942 157.987 147.754 158.472 147.75C158.706 147.748 158.937 147.794 159.152 147.885C159.368 147.975 159.562 148.109 159.724 148.277C159.886 148.446 160.011 148.646 160.093 148.865C160.175 149.083 160.211 149.317 160.2 149.55Z" fill="#263238"/>
<path d="M158.972 76.2274C161.483 73.7715 161.617 69.8351 159.27 67.4351C156.923 65.0352 152.984 65.0805 150.473 67.5363C147.962 69.9921 147.828 73.9285 150.175 76.3285C152.522 78.7285 156.461 78.6832 158.972 76.2274Z" fill="#D53669"/>
<path d="M166.524 86.058C165.029 88.0165 163.105 89.6064 160.9 90.7058C158.695 91.8052 156.268 92.3847 153.804 92.4C151.415 92.4203 149.057 91.8524 146.94 90.7464C144.822 89.6404 143.009 88.0302 141.66 86.058C144.576 83.154 149.19 81.258 154.302 81.258C159.414 81.258 163.866 83.154 166.524 86.058Z" fill="#D53669"/>
<path opacity="0.1" d="M158.972 76.2274C161.483 73.7715 161.617 69.8351 159.27 67.4351C156.923 65.0352 152.984 65.0805 150.473 67.5363C147.962 69.9921 147.828 73.9285 150.175 76.3285C152.522 78.7285 156.461 78.6832 158.972 76.2274Z" fill="white"/>
<path opacity="0.1" d="M166.524 86.058C165.029 88.0165 163.105 89.6064 160.9 90.7058C158.695 91.8052 156.268 92.3847 153.804 92.4C151.415 92.4203 149.057 91.8524 146.94 90.7464C144.822 89.6404 143.009 88.0302 141.66 86.058C144.576 83.154 149.19 81.258 154.302 81.258C159.414 81.258 163.866 83.154 166.524 86.058Z" fill="white"/>
<path d="M78.246 127.464C77.676 128.712 77.076 130.086 76.554 131.418C76.032 132.75 75.498 134.124 75.036 135.492C74.0927 138.188 73.3743 140.957 72.888 143.772L72.756 144.654C72.7434 144.805 72.7577 144.958 72.798 145.104C72.9396 145.601 73.1626 146.072 73.458 146.496C74.2286 147.594 75.1224 148.601 76.122 149.496C77.176 150.476 78.2816 151.4 79.434 152.262C80.586 153.15 81.798 154.014 82.992 154.83L81.87 156.936C79.019 155.694 76.3128 154.142 73.8 152.31C72.4595 151.332 71.2496 150.187 70.2 148.902C69.5779 148.137 69.0927 147.27 68.766 146.34C68.5761 145.759 68.4789 145.151 68.478 144.54C68.478 144.396 68.478 144.186 68.478 144.084V143.79L68.538 143.19C68.882 140.064 69.5393 136.981 70.5 133.986C70.968 132.51 71.466 131.04 72.036 129.606C72.606 128.172 73.194 126.768 73.92 125.31L78.246 127.464Z" fill="#E58A7B"/>
<path d="M82.146 154.458L86.388 152.31L85.29 156.966C85.29 156.966 82.38 157.782 81.03 156.366L82.146 154.458Z" fill="#E58A7B"/>
<path d="M90.27 153.072L89.142 156.924L85.29 156.966L86.388 152.31L90.27 153.072Z" fill="#E58A7B"/>
<path d="M96.258 105C96.4849 105.832 96.8008 106.636 97.2 107.4C97.0834 107.532 96.9331 107.631 96.7652 107.684C96.5972 107.738 96.4179 107.746 96.246 107.706L96.258 105Z" fill="#DF5753"/>
<path d="M96.132 105.036C96.3805 105.036 96.582 104.727 96.582 104.346C96.582 103.965 96.3805 103.656 96.132 103.656C95.8835 103.656 95.682 103.965 95.682 104.346C95.682 104.727 95.8835 105.036 96.132 105.036Z" fill="#263238"/>
<path d="M96 103.68L96.912 103.422C96.912 103.422 96.468 104.13 96 103.68Z" fill="#263238"/>
<path d="M84.54 109.404C85.086 112.194 85.632 117.312 83.676 119.178C83.676 119.178 84.444 122.01 89.634 122.01C95.34 122.01 92.358 119.178 92.358 119.178C89.244 118.434 89.322 116.124 89.868 113.952L84.54 109.404Z" fill="#E58A7B"/>
<path d="M83.022 103.044C83.31 107.706 83.334 109.686 85.686 112.08C89.232 115.68 94.896 114.312 96.006 109.68C97.008 105.48 96.372 98.5681 91.806 96.7141C90.8037 96.3012 89.7127 96.1508 88.6361 96.2771C87.5595 96.4035 86.533 96.8024 85.6536 97.4361C84.7742 98.0699 84.0709 98.9175 83.6104 99.8988C83.15 100.88 82.9474 101.963 83.022 103.044Z" fill="#E58A7B"/>
<path d="M83.484 97.8C81.144 98.652 78.024 98.016 79.248 105.234C80.544 112.878 78.552 115.392 78.552 115.392C78.552 115.392 87.426 117.282 96.486 115.278C96.486 115.278 93.72 110.442 94.494 106.878C95.484 102.378 94.704 100.716 94.704 100.716C94.704 100.716 86.772 96.6 83.484 97.8Z" fill="#263238"/>
<path d="M93.384 105.474C93.3865 106.36 93.6403 107.228 94.116 107.976C94.752 108.948 95.502 108.576 95.688 107.544C95.856 106.638 95.73 105.036 94.92 104.412C94.11 103.788 93.396 104.4 93.384 105.474Z" fill="#E58A7B"/>
<path d="M81.45 98.586C80.778 96.696 83.982 93.786 90.762 94.986C97.542 96.186 97.836 101.832 97.836 101.832L96.468 100.2L96.528 101.916L89.562 103.254L81.45 98.586Z" fill="#263238"/>
<path d="M82.026 119.496C81.986 119.222 82.0545 118.943 82.217 118.719C82.3795 118.495 82.6232 118.343 82.896 118.296C85.008 117.948 89.808 117.24 92.22 117.576C94.02 117.828 94.488 118.872 94.566 119.73C94.5782 119.88 94.5581 120.031 94.5071 120.173C94.456 120.315 94.3752 120.444 94.2701 120.552C94.1649 120.66 94.0378 120.745 93.8974 120.799C93.757 120.854 93.6065 120.878 93.456 120.87L83.028 120.402C82.7821 120.39 82.5481 120.293 82.3655 120.128C82.183 119.962 82.063 119.739 82.026 119.496Z" fill="#D53669"/>
<path opacity="0.6" d="M82.026 119.496C81.986 119.222 82.0545 118.943 82.217 118.719C82.3795 118.495 82.6232 118.343 82.896 118.296C85.008 117.948 89.808 117.24 92.22 117.576C94.02 117.828 94.488 118.872 94.566 119.73C94.5782 119.88 94.5581 120.031 94.5071 120.173C94.456 120.315 94.3752 120.444 94.2701 120.552C94.1649 120.66 94.0378 120.745 93.8974 120.799C93.757 120.854 93.6065 120.878 93.456 120.87L83.028 120.402C82.7821 120.39 82.5481 120.293 82.3655 120.128C82.183 119.962 82.063 119.739 82.026 119.496Z" fill="#102962"/>
<path d="M88.056 224.316L91.926 227.004L98.4 218.226L94.53 215.544L88.056 224.316Z" fill="#E58A7B"/>
<path d="M79.032 224.142L83.118 226.47L88.848 217.188L84.762 214.86L79.032 224.142Z" fill="#E58A7B"/>
<path d="M98.3941 218.226L95.058 222.75L91.188 220.068L94.524 215.544L98.3941 218.226Z" fill="#CF6F64"/>
<path d="M84.756 214.86L88.848 217.194L85.896 221.976L81.804 219.642L84.756 214.86Z" fill="#CF6F64"/>
<path d="M91.32 148.8C91.32 148.8 106.428 167.838 103.59 186.048C101.304 200.754 88.0441 220.668 88.0441 220.668L81.8101 217.572C86.2041 208.767 89.954 199.655 93.0301 190.308C93.9786 187.406 94.2555 184.326 93.8397 181.302C93.424 178.277 92.3265 175.386 90.63 172.848C82.9741 161.67 70.7101 168.324 78.9601 148.8H91.32Z" fill="#D53669"/>
<path opacity="0.6" d="M91.32 148.8C91.32 148.8 106.428 167.838 103.59 186.048C101.304 200.754 88.0441 220.668 88.0441 220.668L81.8101 217.572C86.2041 208.767 89.954 199.655 93.0301 190.308C93.9786 187.406 94.2555 184.326 93.8397 181.302C93.424 178.277 92.3265 175.386 90.63 172.848C82.9741 161.67 70.7101 168.324 78.9601 148.8H91.32Z" fill="#102962"/>
<path opacity="0.4" d="M98.73 161.028L96.534 158.844C96.534 159.018 100.788 185.28 101.982 192.66C102.687 190.504 103.226 188.298 103.596 186.06C105 177.126 102.066 168 98.73 161.028Z" fill="#102962"/>
<path d="M98.064 148.8C98.064 148.8 116.256 172.728 116.772 187.074C117.198 199.074 96.972 222.324 96.972 222.324L91.092 218.52C91.092 218.52 102.93 202.008 105.912 188.52C104.76 175.152 80.4 148.8 80.4 148.8H98.064Z" fill="#D53669"/>
<path opacity="0.6" d="M98.064 148.8C98.064 148.8 116.256 172.728 116.772 187.074C117.198 199.074 96.972 222.324 96.972 222.324L91.092 218.52C91.092 218.52 102.93 202.008 105.912 188.52C104.76 175.152 80.4 148.8 80.4 148.8H98.064Z" fill="#102962"/>
<path d="M75.558 120.246C73.614 120.708 71.748 127.776 71.748 127.776L79.35 132.852C79.35 132.852 81.882 127.26 80.994 124.812C80.076 122.262 78 119.664 75.558 120.246Z" fill="#D53669"/>
<path opacity="0.2" d="M77.046 124.8L76.518 130.962L79.344 132.858C80.1243 131.101 80.702 129.261 81.066 127.374L77.046 124.8Z" fill="#102962"/>
<path d="M100.314 120.384C100.314 120.384 102.558 121.17 98.064 148.794H78.948C79.272 140.994 79.278 136.194 75.558 120.246C78.2347 119.694 80.9478 119.337 83.676 119.178C86.5663 118.971 89.4677 118.971 92.358 119.178C96.09 119.52 100.314 120.384 100.314 120.384Z" fill="#D53669"/>
<path d="M102.258 124.8C102.69 126 103.146 127.29 103.626 128.532C104.106 129.774 104.562 131.052 105.048 132.312L106.518 136.08L106.89 137.022L107.082 137.49L107.172 137.724C107.172 137.766 107.172 137.766 107.172 137.76C107.062 137.605 106.919 137.478 106.752 137.388C106.515 137.248 106.247 137.168 105.972 137.154C105.743 137.147 105.516 137.19 105.306 137.28C105.03 137.406 105.03 137.46 105.036 137.454C105.086 137.414 105.13 137.368 105.168 137.316C105.5 136.88 105.788 136.412 106.026 135.918C106.308 135.366 106.578 134.778 106.848 134.184C107.376 132.984 107.862 131.742 108.348 130.488C108.834 129.234 109.296 127.968 109.746 126.69L111.114 122.862L113.424 123.462C112.968 126.198 112.38 128.862 111.672 131.574C111.33 132.924 110.928 134.262 110.472 135.612C110.244 136.29 109.992 136.962 109.704 137.652C109.404 138.401 109.034 139.12 108.6 139.8C108.44 140.029 108.264 140.245 108.072 140.448C107.766 140.779 107.394 141.042 106.98 141.222C106.613 141.38 106.215 141.453 105.816 141.438C105.369 141.421 104.933 141.291 104.55 141.06C104.098 140.778 103.723 140.388 103.458 139.926C103.368 139.77 103.29 139.614 103.236 139.5L103.122 139.272L102.894 138.804L102.438 137.874C101.838 136.626 101.238 135.366 100.716 134.1C100.194 132.834 99.642 131.55 99.126 130.26C98.61 128.97 98.148 127.68 97.71 126.288L102.258 124.8Z" fill="#E58A7B"/>
<path d="M100.314 120.384C102.612 120.93 105.198 127.722 105.198 127.722L98.364 133.536C98.364 133.536 93.942 126.132 94.836 123.69C95.766 121.146 97.314 119.67 100.314 120.384Z" fill="#D53669"/>
<path d="M112.2 120.714L114.6 118.71L116.268 121.308L115.038 123.474C115.038 123.474 113.082 125.274 111.354 124.356C111.08 123.74 111.014 123.05 111.167 122.393C111.319 121.736 111.682 121.146 112.2 120.714Z" fill="#E58A7B"/>
<path d="M118.932 118.716L118.752 119.37L114.954 120.006L114.582 118.71L118.932 118.716Z" fill="#E58A7B"/>
<path d="M97.44 222.63L90.588 218.202L91.818 216.066L99.516 220.8L97.44 222.63Z" fill="#D53669"/>
<path d="M85.8 226.158C85.1988 226.085 84.6212 225.88 84.108 225.558C84.0868 225.551 84.0685 225.537 84.0555 225.519C84.0425 225.5 84.0355 225.478 84.0355 225.456C84.0355 225.434 84.0425 225.412 84.0555 225.393C84.0685 225.375 84.0868 225.361 84.108 225.354C84.294 225.294 85.908 224.796 86.376 225.18C86.4286 225.224 86.4686 225.281 86.4918 225.345C86.515 225.409 86.5206 225.479 86.508 225.546C86.4997 225.654 86.4639 225.758 86.404 225.848C86.3442 225.939 86.2623 226.012 86.166 226.062C86.0537 226.123 85.928 226.156 85.8 226.158ZM84.45 225.498C85.2 225.882 85.8 226.02 86.088 225.876C86.1507 225.841 86.2035 225.791 86.2413 225.73C86.2791 225.669 86.3007 225.6 86.304 225.528C86.304 225.432 86.304 225.39 86.25 225.366C85.998 225.162 85.098 225.318 84.438 225.498H84.45Z" fill="#263238"/>
<path d="M84.15 225.6C84.1184 225.6 84.0882 225.587 84.066 225.564C84.0571 225.547 84.0524 225.529 84.0524 225.51C84.0524 225.491 84.0571 225.473 84.066 225.456C84.066 225.402 84.456 224.1 85.068 223.806C85.1462 223.77 85.2311 223.752 85.317 223.752C85.403 223.752 85.4879 223.77 85.566 223.806C85.6503 223.833 85.7232 223.887 85.7732 223.96C85.8233 224.032 85.8475 224.12 85.842 224.208C85.8 224.748 84.702 225.492 84.198 225.618L84.15 225.6ZM85.314 223.962C85.2557 223.964 85.1984 223.978 85.146 224.004C84.774 224.184 84.468 224.886 84.318 225.312C84.846 225.09 85.572 224.502 85.596 224.172C85.596 224.118 85.596 224.052 85.458 223.992C85.4131 223.968 85.3644 223.952 85.314 223.944V223.962Z" fill="#263238"/>
<path d="M94.362 228.75C93.684 228.75 92.742 227.88 92.226 227.346C92.2128 227.328 92.2057 227.306 92.2057 227.283C92.2057 227.26 92.2128 227.238 92.226 227.22C92.2379 227.201 92.2547 227.185 92.2748 227.174C92.2948 227.164 92.3174 227.159 92.34 227.16C92.58 227.16 94.662 227.472 94.956 228.06C94.9872 228.113 95.0036 228.173 95.0036 228.234C95.0036 228.295 94.9872 228.355 94.956 228.408C94.9119 228.5 94.8453 228.578 94.7624 228.637C94.6795 228.696 94.583 228.733 94.482 228.744L94.362 228.75ZM92.622 227.43C93.378 228.162 94.044 228.57 94.422 228.522C94.4882 228.513 94.5513 228.489 94.6057 228.45C94.6601 228.411 94.7042 228.36 94.734 228.3C94.7474 228.279 94.7546 228.255 94.7546 228.231C94.7546 228.206 94.7474 228.182 94.734 228.162C94.578 227.838 93.468 227.562 92.622 227.43Z" fill="#263238"/>
<path d="M92.688 227.4C92.5534 227.404 92.4187 227.394 92.286 227.37C92.2675 227.367 92.25 227.36 92.2353 227.348C92.2206 227.337 92.2091 227.321 92.202 227.304C92.1931 227.286 92.1884 227.267 92.1884 227.247C92.1884 227.227 92.1931 227.208 92.202 227.19C92.238 227.148 93.048 226.17 93.816 226.104C94.0335 226.087 94.2488 226.156 94.416 226.296C94.65 226.5 94.6381 226.68 94.5781 226.794C94.4281 227.202 93.39 227.4 92.688 227.4ZM92.532 227.178C93.204 227.214 94.278 226.992 94.416 226.698C94.416 226.698 94.464 226.602 94.308 226.47C94.246 226.416 94.1735 226.375 94.095 226.351C94.0166 226.326 93.9339 226.317 93.852 226.326C93.3347 226.47 92.874 226.77 92.532 227.184V227.178Z" fill="#263238"/>
<path d="M84.3121 224.952L79.224 223.512C79.1363 223.485 79.0419 223.492 78.9589 223.531C78.8758 223.57 78.81 223.638 78.774 223.722L77.058 227.58C77.0177 227.679 76.9988 227.785 77.0025 227.892C77.0062 227.998 77.0325 228.103 77.0795 228.199C77.1265 228.295 77.1933 228.379 77.2755 228.447C77.3576 228.516 77.4532 228.565 77.556 228.594C79.356 229.062 80.22 229.194 82.458 229.836C83.838 230.22 85.806 230.934 87.708 231.474C89.61 232.014 90.246 230.16 89.508 229.764C86.172 228 85.9081 226.764 84.9961 225.444C84.8327 225.205 84.5906 225.031 84.3121 224.952Z" fill="#D53669"/>
<path d="M92.364 226.644L88.02 223.644C87.9463 223.59 87.8556 223.566 87.7649 223.574C87.6742 223.583 87.5899 223.625 87.528 223.692L84.648 226.788C84.5778 226.868 84.5255 226.962 84.4944 227.064C84.4634 227.166 84.4544 227.273 84.468 227.379C84.4816 227.484 84.5176 227.586 84.5734 227.676C84.6293 227.767 84.7038 227.844 84.792 227.904C86.322 228.93 87.114 229.344 89.028 230.67C90.228 231.486 92.55 233.298 94.17 234.426C95.79 235.554 96.996 234.006 96.42 233.394C93.84 230.64 93.276 228.912 92.85 227.346C92.776 227.062 92.6039 226.813 92.364 226.644Z" fill="#D53669"/>
<path d="M88.842 221.064L81.012 217.17L81.822 215.046L90.186 219.15L88.842 221.064Z" fill="#D53669"/>
<path d="M78.66 147.672L78 149.4C77.934 149.532 78.09 149.67 78.312 149.67H98.16C98.334 149.67 98.478 149.586 98.49 149.478L98.658 147.762C98.658 147.648 98.52 147.546 98.334 147.546H78.972C78.9137 147.541 78.855 147.549 78.8007 147.571C78.7464 147.593 78.6982 147.628 78.66 147.672Z" fill="#D53669"/>
<path opacity="0.4" d="M78.66 147.672L78 149.4C77.934 149.532 78.09 149.67 78.312 149.67H98.16C98.334 149.67 98.478 149.586 98.49 149.478L98.658 147.762C98.658 147.648 98.52 147.546 98.334 147.546H78.972C78.9137 147.541 78.855 147.549 78.8007 147.571C78.7464 147.593 78.6982 147.628 78.66 147.672Z" fill="white"/>
<path d="M81.786 149.838H81.2641C81.1621 149.838 81.084 149.784 81.09 149.718L81.336 147.492C81.336 147.432 81.432 147.378 81.534 147.378H82.056C82.158 147.378 82.2361 147.432 82.2301 147.492L81.984 149.718C81.978 149.784 81.888 149.838 81.786 149.838Z" fill="#D53669"/>
<path d="M94.026 149.838H93.51C93.408 149.838 93.33 149.784 93.336 149.718L93.576 147.492C93.576 147.432 93.678 147.378 93.78 147.378H94.296C94.398 147.378 94.482 147.432 94.47 147.492L94.23 149.718C94.2 149.784 94.134 149.838 94.026 149.838Z" fill="#D53669"/>
<g style="mix-blend-mode:multiply">
<path d="M81.33 251.448C90.2075 251.448 97.404 250.927 97.404 250.284C97.404 249.641 90.2075 249.12 81.33 249.12C72.4526 249.12 65.256 249.641 65.256 250.284C65.256 250.927 72.4526 251.448 81.33 251.448Z" fill="#F5F5F5"/>
</g>
<path d="M91.122 248.64C88.278 247.812 85.122 246.75 83.214 245.64C83.16 245.604 83.1 245.586 83.046 245.556V232.68H88.8C89.2368 232.654 89.6472 232.462 89.9473 232.144C90.2474 231.826 90.4146 231.405 90.4146 230.967C90.4146 230.529 90.2474 230.108 89.9473 229.79C89.6472 229.472 89.2368 229.28 88.8 229.254H83.076V170.562H79.62V229.254H73.902C73.6685 229.24 73.4347 229.274 73.2149 229.354C72.995 229.434 72.7938 229.558 72.6236 229.718C72.4534 229.879 72.3178 230.072 72.2251 230.287C72.1324 230.502 72.0846 230.733 72.0846 230.967C72.0846 231.201 72.1324 231.432 72.2251 231.647C72.3178 231.862 72.4534 232.055 72.6236 232.216C72.7938 232.376 72.995 232.5 73.2149 232.58C73.4347 232.66 73.6685 232.694 73.902 232.68H79.62V245.538C79.566 245.538 79.512 245.586 79.458 245.622C77.52 246.75 74.388 247.812 71.544 248.622C71.3519 248.68 71.1869 248.805 71.079 248.974C70.971 249.143 70.9272 249.346 70.9555 249.544C70.9838 249.743 71.0823 249.925 71.2332 250.057C71.3841 250.19 71.5773 250.264 71.778 250.266H90.888C91.0798 250.253 91.2613 250.174 91.4022 250.044C91.5431 249.913 91.635 249.738 91.6623 249.548C91.6897 249.357 91.651 249.163 91.5527 248.998C91.4543 248.833 91.3023 248.707 91.122 248.64Z" fill="#E0E0E0"/>
<path d="M92.004 164.586H70.668C68.9515 164.586 67.56 165.978 67.56 167.694V174.036C67.56 175.753 68.9515 177.144 70.668 177.144H92.004C93.7205 177.144 95.112 175.753 95.112 174.036V167.694C95.112 165.978 93.7205 164.586 92.004 164.586Z" fill="#D53669"/>
<path d="M70.47 177.15V178.242C70.47 179.142 71.448 179.874 72.648 179.874H90.048C91.248 179.874 92.226 179.142 92.226 178.242V177.15H70.47Z" fill="#D53669"/>
<path opacity="0.3" d="M70.47 177.15V178.242C70.47 179.142 71.448 179.874 72.648 179.874H90.048C91.248 179.874 92.226 179.142 92.226 178.242V177.15H70.47Z" fill="white"/>
</svg>
